<svg width="90" height="32" fill="none" xmlns="http://www.w3.org/2000/svg"><g clip-path="url(#clip0_1_248)" fill="#FEFBF9"><path d="M50.426 2.964l-.06-.06-1.079-1.09-1.199 1.21 1.2 1.21 1.138-1.27z"/><path d="M52.825 2.964l-.18-.06-1.08-1.09-1.199 1.21 1.2 1.21 1.259-1.27z"/><path d="M36.516 2.722c0 .242.24.363.42.424.24.06.48.242.48.604v9.316h10.192v.424c0 .786.24 1.27.66 1.451 0 0 .24.182.6.182.24 0 .48-.06.779-.242l.18-.06-.18-.182c-.24-.242-.42-.968-.42-1.391v-.06h3.778v-8.59s-.48 1.088-2.339 2.48c0 0 .06.362.42.544.48.242.42.544.42.544v3.448h-2.339v-.363c0-.846-.24-2.903-2.518-2.903H44.55c-1.319 0-2.038-.182-2.278-.545l-.06-.181-.06.06c-.24.182-.42.484-.42.847 0 .545.36 1.21.84 1.21h3.118c1.858 0 1.918.847 1.918 1.21v.423h-8.694V0s-1.02 1.391-2.458 2.42v.302h.06zM30.58 14.457s-.18 1.392 2.638 1.392c2.278 0 2.338-1.452 2.338-1.452V9.074c0-.363-.06-1.27-1.019-1.27h-7.915v-.606c0-.181.06-.181.24-.241.42-.242.48-.545.42-.666-.9-.544-1.799-1.754-1.799-1.754v4.658h7.975c.24 0 .6.06.6.605v3.75s0 .786-.78.786c-1.26 0-1.2-.665-1.2-.665v-2.057h-6.595v1.634h5.216v1.21h-.12zM63.737 3.75c0-.423.24-.544.42-.605.18-.06.36-.181.42-.544v-.06c0-.182-.06-.182-.24-.242s-.42-.242-.9-.666C62.599.968 62.419.605 62.419.605l-.24-.424v13.006h1.62c-.06-.06-.06-9.195-.06-9.437zm-5.396 11.07l-1.08 1.09-1.079-1.09 1.08-1.088 1.08 1.088zm-3.657 0l2.638 2.662 2.638-2.662-1.619-1.633 1.919-2.057V.181s-.78 1.634-2.039 2.48v.061c0 .242.18.363.36.423.18.061.36.242.36.605v6.594l-1.62 1.694-1.618-1.694V3.75c0-.423.18-.544.36-.605.18-.06.24-.181.36-.423v-.06c-1.2-.847-2.04-2.48-2.04-2.48v11.13l1.92 1.996-1.62 1.512zm-4.617 5.747l.42.242c.06.06.06.06.06.181v3.449H43.23l-1.679 2.117V20.93l.06-.06.36-.242v-.363h-3.718v.363l.36.242.06.06v10.405l-.06.06-.36.242V32h3.718v-.363l-.42-.242-.06-.06v-4.658l.42.06.48-.242.24-.06h7.854v3.63l2.759-3.025v-5.928l.06-.061.42-.181v-.363h-3.658v.06zM89.7 24.741c-.42-1.391-1.439-2.48-2.938-3.327-1.319-.786-3.298-1.089-5.876-1.089H70.873v.363l.42.242v1.21h9.533c1.919 0 3.358.242 4.197.786 1.32.787 2.039 1.876 2.039 3.146 0 .665-.18 1.27-.48 1.875-.36.544-.9 1.029-1.619 1.391-.9.545-2.338.787-4.197.787H75.79v-7.199h-2.698v8.227l-.06.06-.36.182v.363h8.155c1.619 0 2.758-.06 3.718-.242 1.199-.242 2.278-.665 3.118-1.27.899-.605 1.618-1.391 1.918-2.117.24-.605.42-1.21.42-1.876-.12-.544-.24-1.088-.3-1.512zm-30.76-2.359l-8.933 9.376h4.137v-.423h-.54l6.836-7.26-1.5-1.693z"/><path d="M67.935 31.456v.423h4.017L61.159 20.325 59.54 22.02l1.8 1.875 1.858 1.875H60.08l-1.68 1.814.36.242.42-.242h5.516l3.597 3.932s-.06.06-.36.06h-.06v-.12h.06zM36.696 20.809l.36-.242v-.363h-3.598v.363l.36.242.18.181v10.224l-.06.06-.42.181v.364h3.597v-.363l-.36-.182-.06-.06V20.809zM18.648 29.58h-.6l-.48.242c-.06.06-.18.06-.24.06H9.114c-1.859 0-3.298-.241-4.197-.786-1.44-.786-2.099-1.814-2.099-3.266 0-.605.18-1.27.6-1.815.66-1.028 1.679-1.814 3.178-2.056.42-.061.78-.061 1.019-.061h4.197c.24 0 .24.06.24.06l-.06.363h.3l1.799-2.238H9.054c-1.2 0-2.099 0-2.698.06-.36 0-.66.061-.9.182-.84.182-1.619.545-2.338.968-1.32.726-2.219 1.633-2.698 2.662-.24.605-.42 1.27-.42 2.056 0 1.876 1.02 3.328 2.938 4.477.84.544 1.859.847 2.938 1.028.84.182 1.919.182 3.298.182h7.615l1.859-2.118z"/><path d="M14.51 26.798l1.8-2.238H4.376l-1.2 1.814H13.91c.18 0 .24.06.24.06l-.06.364h.42z"/><path d="M15.41 20.204l-1.68 2.117.36.06h.06l.48-.241c.18-.06.24-.182.42-.182h6.596v9.074l-.06.06-.36.242v.364h3.717v-.364l-.36-.241-.06-.06v-9.014h5.817c.24 0 .24.06.24.06v.363h.36l1.798-2.238H15.41z"/></g><defs><clipPath id="clip0_1_248"><path fill="#fff" d="M0 0h90v32H0z"/></clipPath></defs></svg>