<svg width="234" height="36" fill="none" xmlns="http://www.w3.org/2000/svg"><path d="M10.637 25.995l.896.895a10.177 10.177 0 014.691-1.14c3.106 0 5.887 1.387 7.761 3.573l3.58-3.58a13.07 13.07 0 00-8.313-2.967 13.138 13.138 0 00-8.614 3.22z" fill="#D27B32"/><path d="M14.278 29.636l2.48 2.481a3.14 3.14 0 004.44 0l2.5-2.505A7.335 7.335 0 0019 27.918a7.33 7.33 0 00-4.722 1.718zm2.259-15.889c6.35 0 12.08 2.631 16.165 6.86l.372-.372a3.14 3.14 0 000-4.44L21.198 3.92a3.14 3.14 0 00-4.44 0L4.878 15.795a3.117 3.117 0 00-.884 1.778 22.363 22.363 0 0112.543-3.826z" fill="#D27B32"/><path d="M19.252 16.708c-4.98 0-9.522 1.862-12.982 4.92l.931.931a15.765 15.765 0 019.083-2.86c4.752 0 9.017 2.097 11.919 5.407l3.736-3.736a19.554 19.554 0 00-12.687-4.662z" fill="#D27B32"/><path d="M44.993 29.815V5.845h8.704c2.743 0 5.055.476 6.936 1.428 1.904.93 3.344 2.29 4.318 4.08.975 1.768 1.463 3.921 1.463 6.46 0 2.516-.488 4.67-1.463 6.46-.974 1.79-2.413 3.162-4.317 4.114-1.882.952-4.194 1.428-6.937 1.428h-8.704zm4.386-3.638h4.047c2.9 0 5.054-.691 6.46-2.074 1.405-1.383 2.107-3.48 2.107-6.29 0-2.833-.702-4.93-2.108-6.29-1.405-1.383-3.558-2.074-6.46-2.074H49.38v16.728zm21.139 3.638V17.031c0-.725-.023-1.462-.068-2.21a22.274 22.274 0 00-.17-2.176h4.114l.476 4.692h-.68c.227-1.133.6-2.074 1.122-2.822.544-.748 1.201-1.303 1.972-1.666a5.834 5.834 0 012.516-.544c.408 0 .737.023.986.068.25.023.499.08.748.17l-.034 3.74c-.43-.181-.805-.295-1.122-.34a7.612 7.612 0 00-1.122-.068c-.975 0-1.802.204-2.482.612a3.9 3.9 0 00-1.496 1.7c-.317.725-.476 1.553-.476 2.482v9.146h-4.284zm21.412.34c-2.879 0-5.134-.793-6.766-2.38-1.632-1.587-2.448-3.763-2.448-6.528 0-1.79.351-3.355 1.054-4.692.703-1.337 1.677-2.38 2.924-3.128 1.27-.748 2.743-1.122 4.42-1.122 1.655 0 3.037.351 4.148 1.054 1.11.703 1.95 1.689 2.516 2.958.59 1.27.884 2.754.884 4.454v1.122H86.15v-2.244h9.486l-.578.476c0-1.587-.34-2.8-1.02-3.638-.657-.839-1.62-1.258-2.89-1.258-1.405 0-2.493.499-3.264 1.496-.748.997-1.122 2.391-1.122 4.182v.442c0 1.859.453 3.253 1.36 4.182.93.907 2.233 1.36 3.91 1.36.975 0 1.881-.125 2.72-.374a7.965 7.965 0 002.448-1.292l1.258 2.856c-.816.657-1.79 1.167-2.924 1.53a11.753 11.753 0 01-3.604.544zm16.961 0c-1.496 0-2.811-.351-3.944-1.054-1.133-.725-2.017-1.757-2.652-3.094-.635-1.337-.952-2.935-.952-4.794 0-1.859.317-3.445.952-4.76.635-1.337 1.519-2.357 2.652-3.06 1.133-.725 2.448-1.088 3.944-1.088 1.451 0 2.72.363 3.808 1.088 1.111.703 1.847 1.655 2.21 2.856h-.374l.374-3.604h4.08c-.068.703-.136 1.417-.204 2.142-.045.725-.068 1.44-.068 2.142v12.886h-4.216l-.034-3.536h.408c-.363 1.179-1.099 2.12-2.21 2.822-1.111.703-2.369 1.054-3.774 1.054zm1.19-3.264c1.337 0 2.414-.465 3.23-1.394.816-.952 1.224-2.38 1.224-4.284s-.408-3.32-1.224-4.25c-.816-.93-1.893-1.394-3.23-1.394s-2.414.465-3.23 1.394c-.816.93-1.224 2.346-1.224 4.25s.397 3.332 1.19 4.284c.816.93 1.904 1.394 3.264 1.394zm13.264 2.924V16.929a34.595 34.595 0 00-.272-4.284h4.114l.34 3.4h-.408c.476-1.179 1.201-2.097 2.176-2.754.997-.657 2.176-.986 3.536-.986 1.36 0 2.482.329 3.366.986.907.635 1.541 1.632 1.904 2.992h-.544a5.897 5.897 0 012.346-2.89c1.088-.725 2.335-1.088 3.74-1.088 1.927 0 3.366.567 4.318 1.7.952 1.133 1.428 2.901 1.428 5.304v10.506h-4.25V19.479c0-1.36-.227-2.335-.68-2.924-.453-.612-1.179-.918-2.176-.918-1.179 0-2.108.42-2.788 1.258-.68.816-1.02 1.927-1.02 3.332v9.588h-4.25V19.479c0-1.36-.227-2.335-.68-2.924-.453-.612-1.179-.918-2.176-.918-1.179 0-2.108.42-2.788 1.258-.657.816-.986 1.927-.986 3.332v9.588h-4.25zm45.894 0V9.449h-7.922V5.845h20.23v3.604h-7.922v20.366h-4.386zm20.163.34c-1.768 0-3.298-.363-4.59-1.088-1.292-.725-2.301-1.757-3.026-3.094-.703-1.337-1.054-2.924-1.054-4.76 0-1.836.351-3.411 1.054-4.726.725-1.337 1.734-2.369 3.026-3.094 1.292-.725 2.822-1.088 4.59-1.088 1.768 0 3.298.363 4.59 1.088a7.382 7.382 0 013.026 3.094c.725 1.315 1.088 2.89 1.088 4.726 0 1.836-.363 3.423-1.088 4.76a7.382 7.382 0 01-3.026 3.094c-1.292.725-2.822 1.088-4.59 1.088zm0-3.264c1.337 0 2.402-.465 3.196-1.394.793-.952 1.19-2.38 1.19-4.284s-.397-3.32-1.19-4.25c-.794-.93-1.859-1.394-3.196-1.394-1.338 0-2.403.465-3.196 1.394-.794.93-1.19 2.346-1.19 4.25s.396 3.332 1.19 4.284c.793.93 1.858 1.394 3.196 1.394zm18.557 3.264c-2.108 0-3.684-.578-4.726-1.734-1.043-1.156-1.564-2.924-1.564-5.304V12.645h4.25v10.438c0 1.27.26 2.21.782 2.822.521.59 1.314.884 2.38.884 1.201 0 2.176-.408 2.924-1.224.77-.816 1.156-1.893 1.156-3.23v-9.69h4.25v17.17h-4.148v-3.502h.476c-.499 1.224-1.258 2.176-2.278 2.856-.998.657-2.165.986-3.502.986zm14.032-.34V17.031c0-.725-.023-1.462-.068-2.21a22.59 22.59 0 00-.17-2.176h4.114l.476 4.692h-.68c.226-1.133.6-2.074 1.122-2.822.544-.748 1.201-1.303 1.972-1.666a5.83 5.83 0 012.516-.544c.408 0 .736.023.986.068.249.023.498.08.748.17l-.034 3.74c-.431-.181-.805-.295-1.122-.34a7.617 7.617 0 00-1.122-.068c-.975 0-1.802.204-2.482.612a3.896 3.896 0 00-1.496 1.7c-.318.725-.476 1.553-.476 2.482v9.146h-4.284z" fill="#FEFBF9"/></svg>