<svg width="151" height="32" fill="none" xmlns="http://www.w3.org/2000/svg"><path d="M18.77 13.415c-.097 0-.18.003-.226.008a7.28 7.28 0 01-.252.416c1.841 0 3.512.153 5.36.488l-.521.51a25.537 25.537 0 00-4.82-.419c-.258 0-.312 0-.374.003-.061.094-.2.276-.339.445a26.048 26.048 0 015.163.333l-.522.511a25.203 25.203 0 00-3.72-.278c-.438 0-.934.016-1.379.042-.1.117-.362.403-.442.491a19.003 19.003 0 012.008-.09c1.098 0 2.147.072 3.14.22l-.523.507a19.799 19.799 0 00-2.324-.14c-1.956 0-3.5.429-5.093 1.414 1.52 1.648 4.008 2.69 6.42 2.69h.226l-.843.825c-3.479-.66-7.14-2.207-10.233-4.326-2.975-2.03-4.016-2.631-6.338-3.668l-.015-.603 1.57.68.535-.428 5.13 2.376-.335.27-2.632-1.157-.26.206 1.368.772c1.154.65 2.034.94 2.846.94 1.777 0 3.37-1.273 4.4-3.511a19.7 19.7 0 012.59-.148c2.037 0 4.014.197 6.254.62l-.545.534c-1.394-.294-3.762-.533-5.274-.533zM13.785 28.22C7.112 28.22 1.699 22.747 1.699 16c0-6.747 5.413-12.22 12.086-12.22S25.871 9.253 25.871 16c0 6.747-5.413 12.22-12.086 12.22zm0-25.22C6.675 3 .928 8.811.928 16s5.747 13 12.857 13c7.11 0 12.857-5.811 12.857-13S20.895 3 13.785 3zm33.967 18.175h7.372v3.492H43.785V7.333h3.967v13.842zm16.286-8.988h3.698v12.48h-3.478V23.23c-.514.966-1.567 1.808-3.502 1.808-3.159 0-4.8-1.436-4.8-5.547v-7.304h3.698v7.131c0 1.66.71 2.402 2.205 2.402 1.346 0 2.18-.743 2.18-2.402v-7.131zm6.539-.47c0-3.022 1.886-4.631 4.849-4.631.955 0 1.567.148 1.567.148v3.021s-.514-.05-.955-.05c-1.15 0-1.763.397-1.763 1.486v.496h2.718v3.045h-2.718v9.435h-3.698v-9.435h-1.861v-3.045h1.86v-.47zm12.93.47h2.816v3.045h-2.816v4.854c0 1.337.686 1.684 1.764 1.684.44 0 1.052-.075 1.052-.075v2.996s-.856.198-1.762.198c-2.964 0-4.751-1.361-4.751-4.382v-5.275h-1.862v-3.045h1.862v-3.64h3.697v3.64zm11.004-.372c3.135 0 4.776 1.436 4.776 5.547v7.305h-3.699v-7.132c0-1.659-.71-2.402-2.252-2.402-1.397 0-2.229.743-2.229 2.402v7.132H87.41V7.358h3.722V13.4c.637-.916 1.641-1.585 3.38-1.585zm14.204 7.998c0 1.362-1.274 2.378-3.233 2.378-.955 0-1.518-.446-1.518-1.288 0-.644.392-1.189 1.641-1.362l2.131-.297c.367-.05.759-.124.979-.198v.767zm-2.057-7.998c-3.649 0-5.413 1.412-5.559 4.061h3.6c.049-.693.44-1.213 1.959-1.213 1.347 0 1.984.446 1.984 1.114 0 .595-.368.817-1.274.916l-2.351.248c-3.184.347-4.629 1.684-4.629 4.11 0 2.254 1.372 3.987 4.286 3.987 1.984 0 3.16-.644 4.188-1.931v1.56h3.38V16.47c0-3.441-1.984-4.655-5.584-4.655zm14.135 0c3.208 0 4.849 1.436 4.849 5.547v7.305h-3.699v-7.132c0-1.659-.71-2.402-2.252-2.402-1.397 0-2.229.743-2.229 2.402v7.132h-3.698v-12.48h3.477v1.436c.515-.966 1.568-1.808 3.552-1.808zm12.649 5.027c3.135.42 4.702 1.411 4.702 4.011 0 2.625-1.836 4.185-5.73 4.185-4.237 0-5.731-1.708-5.804-4.21h3.649c.098.917.734 1.363 2.155 1.363 1.444 0 2.032-.347 2.032-1.04 0-.644-.49-.941-1.763-1.115l-1.298-.173c-2.718-.372-4.285-1.436-4.285-3.912 0-2.378 1.738-4.136 5.387-4.136 3.38 0 5.192 1.362 5.363 4.061h-3.6c-.122-.718-.514-1.164-1.763-1.164-1.224 0-1.689.421-1.689.966 0 .545.294.842 1.347.99l1.297.174zm13.959 2.972c0 1.361-1.273 2.377-3.232 2.377-.956 0-1.519-.446-1.519-1.288 0-.644.392-1.189 1.641-1.362l2.131-.297c.367-.05.759-.124.979-.198v.768zm-2.057-7.999c-3.648 0-5.412 1.412-5.559 4.061h3.6c.049-.693.441-1.213 1.959-1.213 1.347 0 1.984.446 1.984 1.114 0 .595-.367.817-1.273.916l-2.352.248c-3.183.347-4.628 1.684-4.628 4.11 0 2.254 1.371 3.987 4.285 3.987 1.984 0 3.16-.644 4.188-1.931v1.56h3.38V16.47c0-3.441-1.984-4.655-5.584-4.655z" fill="#FEFBF9"/></svg>