<svg width="117" height="32" fill="none" xmlns="http://www.w3.org/2000/svg"><g clip-path="url(#clip0_1_247)"><path d="M112.942 14.123v-5.29h-5.202v5.29h-2.861V1.587h2.861v4.972h5.202V1.587h2.861v12.535h-2.861zM51.555 1.587v7.828c0 .846.104 1.64.364 2.222.26.581.624 1.11 1.04 1.48a4.55 4.55 0 001.665.847 8.843 8.843 0 002.185.264c.78 0 1.509-.105 2.133-.264a3.69 3.69 0 002.55-2.327c.26-.635.363-1.376.363-2.222V1.587h-2.653v7.775c0 .793-.208 1.428-.572 1.904s-.988.74-1.82.74c-.833 0-1.457-.264-1.822-.74-.364-.476-.572-1.11-.572-1.904V1.587h-2.861zm-8.22 12.536V3.914h-3.33V1.587h9.573v1.11c0 .688-.52 1.217-1.197 1.217h-2.184v10.209h-2.862zM89.116 1.587h2.86v12.536h-2.86V1.587zm-9.469 6.664l.104.106 3.642 4.76c.468.582 1.145.953 1.925.953h2.289L82.405 7.3l-.052-.106.052-.106 4.266-5.501h-2.966l-3.954 5.395-.104.106V1.586h-2.86v12.537h2.86V8.25zm-6.554 5.872c-.833 0-1.665-.477-2.081-1.164l-2.237-3.703H67.37v4.92h-2.861V1.585h5.098c1.3 0 2.341.371 3.017 1.006.729.687 1.093 1.64 1.093 2.75 0 .582-.156 1.164-.468 1.746-.313.582-.833 1.058-1.561 1.428l-.156.053 3.485 5.5h-1.924v.053zM67.37 7.299h1.665c.572 0 1.04-.158 1.352-.476.312-.317.469-.74.469-1.27 0-.528-.157-.951-.417-1.269-.312-.317-.728-.476-1.352-.476h-1.665V7.3h-.052zm26.948 6.294v-2.38c.884.423 2.08.847 3.277.847 1.405 0 2.081-.476 2.081-1.429 0-1.11-.936-1.216-2.861-2.062-1.3-.582-2.497-1.481-2.497-3.597 0-2.433 1.82-3.597 4.37-3.597 1.352 0 2.497.318 3.121.582v2.327c-.624-.317-1.769-.687-2.965-.687-1.249 0-1.82.476-1.82 1.27 0 .845.727 1.11 1.976 1.586 1.613.846 3.538 1.216 3.538 4.02 0 2.433-1.925 3.755-4.474 3.755-1.51.053-2.758-.211-3.746-.635zm4.474 16.873V17.931h7.699v1.11c0 .688-.52 1.217-1.196 1.217h-3.694v2.698h4.162v2.115h-4.162v3.068h4.89v2.327h-7.7zm-28.197 0V17.931H72c.832 0 1.457.687 1.457 1.48v8.78h4.526v2.275h-7.388zm-17.635 0V17.931h2.86v12.535h-2.86zm13.994 0c-.833 0-1.665-.476-2.081-1.163L62.636 25.6H61.23v4.92h-2.86V17.93h5.098c1.3 0 2.341.37 3.017 1.006.729.687 1.093 1.64 1.093 2.75 0 .582-.156 1.164-.468 1.798-.312.582-.833 1.058-1.56 1.428l-.157.053 3.486 5.501h-1.925zm-5.67-6.823h1.664c.624 0 1.04-.159 1.353-.476.312-.317.468-.74.468-1.27 0-.528-.156-.951-.416-1.269-.313-.317-.729-.476-1.353-.476h-1.665l-.052 3.491zM46.717 17.93h-3.278l-4.63 12.536h2.03c.52 0 .988-.317 1.144-.846l.468-1.481h4.994l.728 2.327h3.07l-4.526-12.535zm-3.538 7.987l1.093-3.173c.26-.688.52-1.481.676-2.01H45c.156.582.416 1.27.624 2.01l1.093 3.173h-3.538zm65.601 4.02v-2.38c.885.423 2.081.846 3.278.846 1.404 0 2.081-.476 2.081-1.428 0-1.11-.937-1.216-2.862-2.063-1.3-.581-2.497-1.48-2.497-3.596 0-2.433 1.821-3.597 4.37-3.597 1.353 0 2.497.317 3.122.582v2.327c-.625-.317-1.769-.688-2.966-.688-1.248 0-1.82.476-1.82 1.27 0 .846.728 1.11 1.976 1.587 1.613.846 3.538 1.216 3.538 4.02 0 2.433-1.925 3.755-4.474 3.755-1.509.053-2.757-.212-3.746-.635zM85.318 17.93h1.769c.832 0 1.612.424 2.08 1.164l3.434 5.607c.364.635.832 1.428 1.093 2.01h.052c-.052-.582-.052-1.322-.052-1.904V17.93h2.497v12.535h-3.122l-4.162-6.77a85.519 85.519 0 01-1.092-1.957h-.052c0 .529.052 1.164.052 1.798v6.93h-2.497V17.93zm-5.462 0h2.86v12.536h-2.86V17.931zM17.376.106c7.907.846 14.098 7.616 14.098 15.92C31.474 24.86 24.451 32 15.763 32S0 24.86 0 16.026C0 7.193 7.023 0 15.763 0c.52 0 1.092.053 1.613.106zm.832 30.783c8.064-1.375 13.526-9.15 12.174-17.401-1.145-6.824-6.607-11.795-13.058-12.483-1.3-.159-2.654-.106-4.006.106a14.043 14.043 0 00-4.474 1.534c7.075 2.486 10.925 6.24 11.185 10.05.156 2.38-.936 4.072-2.393 5.447l10.092-.688c.26 0 .364.318.052.424L3.694 24.86c2.445 3.438 6.242 5.712 10.456 6.135 1.353.159 2.705.159 4.058-.106zm-6.607-14.545c1.3-5.025-.208-10.314-3.798-13.118C2.913 6.4.052 12.324 1.093 18.512a14.27 14.27 0 002.08 5.554c3.85-1.058 7.232-3.12 8.428-7.722z" fill="#FEFBF9"/><path d="M18.208 30.89c8.064-1.376 13.526-9.151 12.174-17.402-1.145-6.824-6.607-11.796-13.058-12.483-1.3-.159-2.654-.106-4.006.106a14.043 14.043 0 00-4.474 1.534c7.075 2.485 10.925 6.24 11.185 10.05.156 2.38-.936 4.072-2.393 5.447l10.092-.688c.26 0 .364.318.052.424L3.694 24.859c2.445 3.438 6.242 5.713 10.456 6.136 1.353.159 2.705.159 4.058-.106zm-6.607-14.546c1.3-5.025-.208-10.314-3.798-13.118C2.913 6.4.052 12.324 1.093 18.512a14.27 14.27 0 002.08 5.554c3.85-1.058 7.232-3.12 8.428-7.722z" fill="#fff" fill-opacity=".1"/></g><defs><clipPath id="clip0_1_247"><path fill="#fff" d="M0 0h117v32H0z"/></clipPath></defs></svg>