<svg width="90" height="32" viewBox="0 0 90 32" fill="none" xmlns="http://www.w3.org/2000/svg">
<g clip-path="url(#clip0_1_248)">
<path d="M50.4264 2.96404L50.3664 2.90354L49.2872 1.8147L48.088 3.02453L49.2872 4.23436L50.4264 2.96404Z" fill="#FEFBF9"/>
<path d="M52.8248 2.96404L52.6449 2.90354L51.5656 1.8147L50.3664 3.02453L51.5656 4.23436L52.8248 2.96404Z" fill="#FEFBF9"/>
<path d="M36.5156 2.72212C36.5156 2.96408 36.7555 3.08507 36.9354 3.14556C37.1752 3.20605 37.4151 3.38752 37.4151 3.75047V13.0662H47.6083V13.2476C47.6083 13.3081 47.6083 13.3081 47.6083 13.4896C47.6083 14.276 47.8481 14.7599 48.2678 14.9414C48.2678 14.9414 48.5077 15.1229 48.8674 15.1229C49.1073 15.1229 49.3471 15.0624 49.6469 14.8809L49.8268 14.8204L49.6469 14.6389C49.4071 14.397 49.2272 13.6711 49.2272 13.2476V13.1871H53.0047V4.59735C53.0047 4.59735 52.525 5.6862 50.6662 7.0775C50.6662 7.0775 50.7262 7.44045 51.0859 7.62193C51.5656 7.86389 51.5057 8.16635 51.5057 8.16635V11.6144H49.1672V11.4329V11.2514C49.1672 10.4045 48.9274 8.34783 46.6489 8.34783H46.5889C45.9294 8.34783 45.2698 8.34783 44.7302 8.34783H44.5503C43.2312 8.34783 42.5117 8.16635 42.2718 7.8034L42.2119 7.62193L42.1519 7.68242C41.9121 7.86389 41.7322 8.16635 41.7322 8.5293C41.7322 9.07372 42.0919 9.73913 42.5716 9.73913C42.9314 9.73913 43.411 9.73913 43.8907 9.73913C44.7302 9.73913 45.6895 9.73913 45.6895 9.73913C47.5483 9.73913 47.6083 10.586 47.6083 10.949V11.3724H38.9141V0C38.9141 0 37.8947 1.3913 36.4557 2.41966V2.48015V2.72212H36.5156Z" fill="#FEFBF9"/>
<path d="M30.5796 14.4575C30.5796 14.4575 30.3997 15.8488 33.2178 15.8488C35.4963 15.8488 35.5563 14.397 35.5563 14.397V9.07373C35.5563 8.71078 35.4963 7.80341 34.537 7.80341H26.6222V7.19849C26.6222 7.01702 26.6822 7.01702 26.8621 6.95652C27.2818 6.71456 27.3418 6.4121 27.2818 6.29112C26.3824 5.74669 25.483 4.53687 25.483 4.53687V9.19471H33.3977H33.4577C33.6975 9.19471 34.0573 9.2552 34.0573 9.79962V13.5501C34.0573 13.5501 34.0573 14.3365 33.2778 14.3365C32.0186 14.3365 32.0786 13.6711 32.0786 13.6711V11.6144H25.483V13.2476H30.6995V14.4575H30.5796Z" fill="#FEFBF9"/>
<path d="M63.7375 3.75039C63.7375 3.32695 63.9773 3.20597 64.1572 3.14548C64.3371 3.08499 64.517 2.964 64.5769 2.60106V2.54056C64.5769 2.35909 64.517 2.35909 64.3371 2.2986C64.1572 2.23811 63.9174 2.05663 63.4377 1.63319C62.5983 0.967786 62.4184 0.604837 62.4184 0.604837L62.1785 0.181396V13.1871H63.7975C63.7375 13.1266 63.7375 3.99236 63.7375 3.75039Z" fill="#FEFBF9"/>
<path d="M58.3411 14.8203L57.2618 15.9092L56.1825 14.8203L57.2618 13.7315L58.3411 14.8203ZM54.6835 14.8203L57.3218 17.482L59.96 14.8203L58.3411 13.1871L60.2598 11.1304V0.181396C60.2598 0.181396 59.4803 1.81467 58.2212 2.66155V2.72204C58.2212 2.96401 58.401 3.08499 58.5809 3.14548C58.7608 3.20597 58.9407 3.38745 58.9407 3.75039C58.9407 4.11334 58.9407 10.344 58.9407 10.344L57.3218 12.0377L55.7029 10.344C55.7029 10.2835 55.7029 3.99236 55.7029 3.75039C55.7029 3.32695 55.8827 3.20597 56.0626 3.14548C56.2425 3.08499 56.3024 2.96401 56.4224 2.72204V2.66155C55.2232 1.81467 54.3837 0.181396 54.3837 0.181396V11.3118L56.3025 13.3081L54.6835 14.8203Z" fill="#FEFBF9"/>
<path d="M50.0666 20.5671L50.4863 20.8091C50.5463 20.8696 50.5463 20.8696 50.5463 20.9905V24.4386H43.2312L41.5523 26.5558V20.9905V20.9301L41.6122 20.8696L41.972 20.6276V20.2646H38.2545V20.6276L38.6142 20.8696L38.6742 20.9301V31.1531V31.3346L38.6142 31.3951L38.2545 31.6371V32H41.972V31.6371L41.5523 31.3951L41.4923 31.3346V26.6767L41.912 26.7372L42.3917 26.4953L42.6316 26.4348C42.6316 26.4348 42.6915 26.4348 42.8114 26.4348H50.4863V30.0643L53.2445 27.0397V21.1115L53.3045 21.051L53.7242 20.8696V20.5066H50.0666V20.5671Z" fill="#FEFBF9"/>
<path d="M89.7002 24.7411C89.2805 23.3498 88.2611 22.2609 86.7621 21.414C85.443 20.6277 83.4643 20.3252 80.8861 20.3252H70.8727V20.6881L71.2925 20.9301V22.1399H80.8261C82.7448 22.1399 84.1839 22.3819 85.0233 22.9263C86.3424 23.7127 87.0619 24.8016 87.0619 26.0719C87.0619 26.7373 86.8821 27.3422 86.5823 27.9471C86.2225 28.4915 85.6829 28.9755 84.9633 29.3384C84.0639 29.8829 82.6249 30.1248 80.7661 30.1248H75.7895V22.9263H73.0913V31.0927V31.1532L73.0313 31.2137L72.6715 31.3951V31.7581H80.8261C82.445 31.7581 83.5843 31.6976 84.5436 31.5161C85.7428 31.2742 86.8221 30.8507 87.6615 30.2458C88.5609 29.6409 89.2805 28.8545 89.5803 28.1286C89.8201 27.5237 90 26.9188 90 26.2534C89.8801 25.7089 89.7602 25.1645 89.7002 24.7411Z" fill="#FEFBF9"/>
<path d="M58.9407 22.3818L50.0067 31.758H54.1439V31.3346H53.964H53.7841H53.6043L60.4397 24.0756L58.9407 22.3818Z" fill="#FEFBF9"/>
<path d="M67.9347 31.4556V31.8791H71.952L61.1592 20.3252L59.5403 22.019L61.3391 23.8942L63.1979 25.7694H60.0799L58.4011 27.5842L58.7608 27.8261L59.1805 27.5842H59.2405C59.2405 27.5842 59.4204 27.5842 59.4803 27.5842H64.6969L68.2945 31.5161C68.2945 31.5161 68.2345 31.5766 67.9347 31.5766H67.8747V31.4556H67.9347Z" fill="#FEFBF9"/>
<path d="M36.6955 20.809L37.0553 20.567V20.2041H33.4577V20.567L33.8175 20.809L33.9973 20.9905V31.0321V31.2136L33.9374 31.274L33.5177 31.4555V31.8185H37.1153V31.4555L36.7555 31.274L36.6955 31.2136V20.9905V20.93V20.809Z" fill="#FEFBF9"/>
<path d="M18.6476 29.5804H18.4677H18.048L17.5683 29.8224C17.5083 29.8829 17.3884 29.8829 17.3284 29.8829H9.11392C7.25516 29.8829 5.81612 29.6409 4.91672 29.0965C3.47768 28.3101 2.81812 27.2817 2.81812 25.8299C2.81812 25.225 2.998 24.5596 3.41772 24.0152C4.07728 22.9868 5.0966 22.2005 6.5956 21.9585C7.01532 21.898 7.37508 21.898 7.61492 21.898H11.8121C12.052 21.898 12.052 21.9585 12.052 21.9585L11.992 22.3214H12.2918L14.0906 20.0833H9.05396C7.85476 20.0833 6.95536 20.0833 6.35576 20.1437C5.996 20.1437 5.6962 20.2042 5.45636 20.3252C4.61692 20.5067 3.83744 20.8696 3.11792 21.2931C1.7988 22.019 0.8994 22.9264 0.41972 23.9547C0.17988 24.5596 0 25.225 0 26.0114C0 27.8867 1.01932 29.3385 2.93804 30.4878C3.77748 31.0322 4.7968 31.3347 5.87608 31.5161C6.71552 31.6976 7.7948 31.6976 9.17388 31.6976H16.7888L18.6476 29.5804Z" fill="#FEFBF9"/>
<path d="M14.5103 26.7978L16.3091 24.5596H4.37709L3.17789 26.3743H13.9107C14.0906 26.3743 14.1506 26.4348 14.1506 26.4348L14.0906 26.7978H14.5103Z" fill="#FEFBF9"/>
<path d="M15.4097 20.2041L13.7308 22.3213L14.0906 22.3818H14.1506L14.6302 22.1398C14.8101 22.0793 14.8701 21.9584 15.05 21.9584H21.6456V30.9716V31.0321L21.5856 31.0926L21.2258 31.3345V31.6975H24.9434V31.3345L24.5836 31.0926L24.5236 31.0321V30.9716V22.0188H30.3398C30.5796 22.0188 30.5796 22.0793 30.5796 22.0793V22.4423H30.9394L32.7382 20.2041H15.4097Z" fill="#FEFBF9"/>
</g>
<defs>
<clipPath id="clip0_1_248">
<rect width="90" height="32" fill="white"/>
</clipPath>
</defs>
</svg>
