<svg width="234" height="36" viewBox="0 0 234 36" fill="none" xmlns="http://www.w3.org/2000/svg">
<path d="M10.6375 25.9954L11.5326 26.8905C12.9383 26.1636 14.5302 25.7491 16.2242 25.7491C19.3299 25.7491 22.1113 27.1368 23.9855 29.3234L27.5658 25.7431C25.3011 23.8869 22.4056 22.7755 19.2518 22.7755C15.9539 22.7815 12.9443 23.995 10.6375 25.9954Z" fill="#D27B32"/>
<path d="M14.2779 29.6362L16.7589 32.1172C17.9843 33.3427 19.9727 33.3427 21.1982 32.1172L23.6972 29.6122C22.4237 28.5549 20.7837 27.9181 18.9996 27.9181C17.2034 27.9181 15.5514 28.5669 14.2779 29.6362Z" fill="#D27B32"/>
<path d="M16.5365 13.7469C22.8861 13.7469 28.617 16.3781 32.7019 20.6071L33.0744 20.2347C34.2998 19.0092 34.2998 17.0208 33.0744 15.7954L21.1981 3.9191C19.9726 2.69363 17.9843 2.69363 16.7588 3.9191L4.87653 15.7954C4.37793 16.294 4.08358 16.9247 3.99347 17.5735C7.57377 15.1586 11.8929 13.7469 16.5365 13.7469Z" fill="#D27B32"/>
<path d="M19.2518 16.7082C14.2718 16.7082 9.73035 18.5704 6.2702 21.6281L7.20132 22.5592C9.77241 20.7571 12.9022 19.6998 16.2842 19.6998C21.0359 19.6998 25.301 21.7963 28.2025 25.1063L31.939 21.3698C28.5209 18.4683 24.0876 16.7082 19.2518 16.7082Z" fill="#D27B32"/>
<path d="M44.9935 29.815V5.845H53.6975C56.4401 5.845 58.7521 6.321 60.6335 7.273C62.5375 8.20233 63.9768 9.56233 64.9515 11.353C65.9261 13.121 66.4135 15.2743 66.4135 17.813C66.4135 20.329 65.9261 22.4823 64.9515 24.273C63.9768 26.0637 62.5375 27.435 60.6335 28.387C58.7521 29.339 56.4401 29.815 53.6975 29.815H44.9935ZM49.3795 26.177H53.4255C56.3268 26.177 58.4801 25.4857 59.8855 24.103C61.2908 22.7203 61.9935 20.6237 61.9935 17.813C61.9935 14.9797 61.2908 12.883 59.8855 11.523C58.4801 10.1403 56.3268 9.449 53.4255 9.449H49.3795V26.177Z" fill="#FEFBF9"/>
<path d="M70.5179 29.815V17.031C70.5179 16.3057 70.4952 15.569 70.4499 14.821C70.4272 14.073 70.3706 13.3477 70.2799 12.645H74.3939L74.8699 17.337H74.1899C74.4166 16.2037 74.7906 15.263 75.3119 14.515C75.8559 13.767 76.5132 13.2117 77.2839 12.849C78.0546 12.4863 78.8932 12.305 79.7999 12.305C80.2079 12.305 80.5366 12.3277 80.7859 12.373C81.0352 12.3957 81.2846 12.4523 81.5339 12.543L81.4999 16.283C81.0692 16.1017 80.6952 15.9883 80.3779 15.943C80.0832 15.8977 79.7092 15.875 79.2559 15.875C78.2812 15.875 77.4539 16.079 76.7739 16.487C76.1166 16.895 75.6179 17.4617 75.2779 18.187C74.9606 18.9123 74.8019 19.7397 74.8019 20.669V29.815H70.5179Z" fill="#FEFBF9"/>
<path d="M91.9299 30.155C89.0513 30.155 86.7959 29.3617 85.1639 27.775C83.5319 26.1883 82.7159 24.0123 82.7159 21.247C82.7159 19.4563 83.0673 17.8923 83.7699 16.555C84.4726 15.2177 85.4473 14.175 86.6939 13.427C87.9633 12.679 89.4366 12.305 91.1139 12.305C92.7686 12.305 94.1513 12.6563 95.2619 13.359C96.3726 14.0617 97.2113 15.0477 97.7779 16.317C98.3673 17.5863 98.6619 19.071 98.6619 20.771V21.893H86.1499V19.649H95.6359L95.0579 20.125C95.0579 18.5383 94.7179 17.3257 94.0379 16.487C93.3806 15.6483 92.4173 15.229 91.1479 15.229C89.7426 15.229 88.6546 15.7277 87.8839 16.725C87.1359 17.7223 86.7619 19.1163 86.7619 20.907V21.349C86.7619 23.2077 87.2153 24.6017 88.1219 25.531C89.0513 26.4377 90.3546 26.891 92.0319 26.891C93.0066 26.891 93.9133 26.7663 94.7519 26.517C95.6133 26.245 96.4293 25.8143 97.1999 25.225L98.4579 28.081C97.6419 28.7383 96.6673 29.2483 95.5339 29.611C94.4006 29.9737 93.1993 30.155 91.9299 30.155Z" fill="#FEFBF9"/>
<path d="M108.891 30.155C107.395 30.155 106.08 29.8037 104.947 29.101C103.814 28.3757 102.93 27.3443 102.295 26.007C101.66 24.6697 101.343 23.0717 101.343 21.213C101.343 19.3543 101.66 17.7677 102.295 16.453C102.93 15.1157 103.814 14.0957 104.947 13.393C106.08 12.6677 107.395 12.305 108.891 12.305C110.342 12.305 111.611 12.6677 112.699 13.393C113.81 14.0957 114.546 15.0477 114.909 16.249H114.535L114.909 12.645H118.989C118.921 13.3477 118.853 14.0617 118.785 14.787C118.74 15.5123 118.717 16.2263 118.717 16.929V29.815H114.501L114.467 26.279H114.875C114.512 27.4577 113.776 28.3983 112.665 29.101C111.554 29.8037 110.296 30.155 108.891 30.155ZM110.081 26.891C111.418 26.891 112.495 26.4263 113.311 25.497C114.127 24.545 114.535 23.117 114.535 21.213C114.535 19.309 114.127 17.8923 113.311 16.963C112.495 16.0337 111.418 15.569 110.081 15.569C108.744 15.569 107.667 16.0337 106.851 16.963C106.035 17.8923 105.627 19.309 105.627 21.213C105.627 23.117 106.024 24.545 106.817 25.497C107.633 26.4263 108.721 26.891 110.081 26.891Z" fill="#FEFBF9"/>
<path d="M123.345 29.815V16.929C123.345 16.2263 123.322 15.5123 123.277 14.787C123.232 14.0617 123.164 13.3477 123.073 12.645H127.187L127.527 16.045H127.119C127.595 14.8663 128.32 13.9483 129.295 13.291C130.292 12.6337 131.471 12.305 132.831 12.305C134.191 12.305 135.313 12.6337 136.197 13.291C137.104 13.9257 137.738 14.923 138.101 16.283H137.557C138.033 15.059 138.815 14.0957 139.903 13.393C140.991 12.6677 142.238 12.305 143.643 12.305C145.57 12.305 147.009 12.8717 147.961 14.005C148.913 15.1383 149.389 16.9063 149.389 19.309V29.815H145.139V19.479C145.139 18.119 144.912 17.1443 144.459 16.555C144.006 15.943 143.28 15.637 142.283 15.637C141.104 15.637 140.175 16.0563 139.495 16.895C138.815 17.711 138.475 18.8217 138.475 20.227V29.815H134.225V19.479C134.225 18.119 133.998 17.1443 133.545 16.555C133.092 15.943 132.366 15.637 131.369 15.637C130.19 15.637 129.261 16.0563 128.581 16.895C127.924 17.711 127.595 18.8217 127.595 20.227V29.815H123.345Z" fill="#FEFBF9"/>
<path d="M169.239 29.815V9.449H161.317V5.845H181.547V9.449H173.625V29.815H169.239Z" fill="#FEFBF9"/>
<path d="M189.402 30.155C187.634 30.155 186.104 29.7923 184.812 29.067C183.52 28.3417 182.511 27.3103 181.786 25.973C181.083 24.6357 180.732 23.049 180.732 21.213C180.732 19.377 181.083 17.8017 181.786 16.487C182.511 15.1497 183.52 14.1183 184.812 13.393C186.104 12.6677 187.634 12.305 189.402 12.305C191.17 12.305 192.7 12.6677 193.992 13.393C195.306 14.1183 196.315 15.1497 197.018 16.487C197.743 17.8017 198.106 19.377 198.106 21.213C198.106 23.049 197.743 24.6357 197.018 25.973C196.315 27.3103 195.306 28.3417 193.992 29.067C192.7 29.7923 191.17 30.155 189.402 30.155ZM189.402 26.891C190.739 26.891 191.804 26.4263 192.598 25.497C193.391 24.545 193.788 23.117 193.788 21.213C193.788 19.309 193.391 17.8923 192.598 16.963C191.804 16.0337 190.739 15.569 189.402 15.569C188.064 15.569 186.999 16.0337 186.206 16.963C185.412 17.8923 185.016 19.309 185.016 21.213C185.016 23.117 185.412 24.545 186.206 25.497C186.999 26.4263 188.064 26.891 189.402 26.891Z" fill="#FEFBF9"/>
<path d="M207.959 30.155C205.851 30.155 204.275 29.577 203.233 28.421C202.19 27.265 201.669 25.497 201.669 23.117V12.645H205.919V23.083C205.919 24.3523 206.179 25.293 206.701 25.905C207.222 26.4943 208.015 26.789 209.081 26.789C210.282 26.789 211.257 26.381 212.005 25.565C212.775 24.749 213.161 23.6723 213.161 22.335V12.645H217.411V29.815H213.263V26.313H213.739C213.24 27.537 212.481 28.489 211.461 29.169C210.463 29.8263 209.296 30.155 207.959 30.155Z" fill="#FEFBF9"/>
<path d="M221.991 29.815V17.031C221.991 16.3057 221.968 15.569 221.923 14.821C221.9 14.073 221.843 13.3477 221.753 12.645H225.867L226.343 17.337H225.663C225.889 16.2037 226.263 15.263 226.785 14.515C227.329 13.767 227.986 13.2117 228.757 12.849C229.527 12.4863 230.366 12.305 231.273 12.305C231.681 12.305 232.009 12.3277 232.259 12.373C232.508 12.3957 232.757 12.4523 233.007 12.543L232.973 16.283C232.542 16.1017 232.168 15.9883 231.851 15.943C231.556 15.8977 231.182 15.875 230.729 15.875C229.754 15.875 228.927 16.079 228.247 16.487C227.589 16.895 227.091 17.4617 226.751 18.187C226.433 18.9123 226.275 19.7397 226.275 20.669V29.815H221.991Z" fill="#FEFBF9"/>
</svg>
