<svg width="151" height="32" viewBox="0 0 151 32" fill="none" xmlns="http://www.w3.org/2000/svg">
<path d="M18.7704 13.4149C18.6726 13.4149 18.5904 13.4175 18.5441 13.4227C18.4901 13.5215 18.4104 13.6541 18.2921 13.8387C20.133 13.8387 21.8043 13.992 23.6529 14.3274L23.1309 14.8369C21.4623 14.538 20.0765 14.4184 18.3101 14.4184C18.0531 14.4184 17.9991 14.4184 17.9374 14.421C17.8756 14.5146 17.7368 14.6965 17.598 14.8655C17.7548 14.8552 18.0582 14.85 18.4772 14.85C19.9299 14.85 21.2874 14.9591 22.7607 15.1983L22.2387 15.7104C21.1178 15.5337 19.7474 15.4323 18.5184 15.4323C18.0813 15.4323 17.5851 15.4479 17.1403 15.4739C17.04 15.5908 16.7778 15.8768 16.6981 15.9652C17.2868 15.9028 17.9348 15.8742 18.7061 15.8742C19.804 15.8742 20.853 15.947 21.8454 16.0952L21.3234 16.6021C20.6164 16.5137 19.7576 16.4618 18.9992 16.4618C17.0426 16.4618 15.4999 16.8907 13.9058 17.8759C15.4254 19.5241 17.9142 20.5666 20.3259 20.5666H20.5521L19.7088 21.3908C16.2301 20.7304 12.5689 19.1836 9.4759 17.0648C6.50113 15.0345 5.45985 14.434 3.13817 13.3968L3.12275 12.7936L4.69368 13.4747L5.22847 13.0458L10.3578 15.4219L10.0235 15.6922L7.39074 14.5354L7.13105 14.7407L8.4989 15.5129C9.65333 16.1628 10.5326 16.4539 11.3451 16.4539C13.1217 16.4539 14.7158 15.1801 15.7442 12.9418C16.5181 12.8404 17.3434 12.7936 18.3358 12.7936C20.3721 12.7936 22.3493 12.9912 24.5887 13.4149L24.0436 13.9478C22.6502 13.6541 20.2821 13.4149 18.7704 13.4149ZM13.785 28.2199C7.11218 28.2199 1.69932 22.7469 1.69932 16C1.69932 9.25301 7.11218 3.77994 13.785 3.77994C20.4578 3.77994 25.8707 9.25301 25.8707 16C25.8707 22.7469 20.4578 28.2199 13.785 28.2199ZM13.785 3C6.67506 3 0.927826 8.81097 0.927826 16C0.927826 23.189 6.67506 29 13.785 29C20.895 29 26.6422 23.189 26.6422 16C26.6422 8.81097 20.895 3 13.785 3ZM47.7523 21.1752H55.1238V24.6667H43.785V7.33326H47.7523V21.1752ZM64.0381 12.1866H67.736V24.6667H64.2585V23.2305C63.7442 24.1962 62.6912 25.038 60.7564 25.038C57.5974 25.038 55.9565 23.6018 55.9565 19.4914V12.1866H59.6545V19.318C59.6545 20.9771 60.3648 21.7199 61.8586 21.7199C63.2055 21.7199 64.0381 20.9771 64.0381 19.318V12.1866ZM70.5769 11.7162C70.5769 8.69534 72.4627 7.08567 75.4259 7.08567C76.3811 7.08567 76.9933 7.23426 76.9933 7.23426V10.2552C76.9933 10.2552 76.479 10.2058 76.0381 10.2058C74.8871 10.2058 74.2748 10.602 74.2748 11.6915V12.1866H76.9933V15.2324H74.2748V24.6667H70.5769V15.2324H68.7157V12.1866H70.5769V11.7162ZM83.5071 12.1866H86.3235V15.2324H83.5071V20.0857C83.5071 21.4229 84.1929 21.7695 85.2706 21.7695C85.7115 21.7695 86.3235 21.6953 86.3235 21.6953V24.6914C86.3235 24.6914 85.4666 24.8894 84.5606 24.8894C81.5973 24.8894 79.8096 23.5276 79.8096 20.5068V15.2324H77.9482V12.1866H79.8096V8.54669H83.5071V12.1866ZM94.5108 11.8152C97.6459 11.8152 99.2866 13.2514 99.2866 17.3619V24.6667H95.5885V17.5352C95.5885 15.8762 94.8785 15.1334 93.3357 15.1334C91.9393 15.1334 91.1072 15.8762 91.1072 17.5352V24.6667H87.409V7.35809H91.1314V13.4C91.7682 12.4837 92.7721 11.8152 94.5108 11.8152ZM108.715 19.8133C108.715 21.1752 107.441 22.1905 105.482 22.1905C104.527 22.1905 103.964 21.7448 103.964 20.9028C103.964 20.2591 104.356 19.7144 105.605 19.5411L107.736 19.2438C108.103 19.1942 108.495 19.1201 108.715 19.0458V19.8133ZM106.658 11.8153C103.009 11.8153 101.245 13.2268 101.099 15.8763H104.699C104.748 15.1828 105.139 14.6628 106.658 14.6628C108.005 14.6628 108.642 15.1087 108.642 15.7771C108.642 16.3716 108.274 16.5943 107.368 16.6933L105.017 16.9409C101.833 17.2875 100.388 18.6248 100.388 21.0515C100.388 23.3048 101.76 25.038 104.674 25.038C106.658 25.038 107.834 24.3943 108.862 23.1065V24.6667H112.242V16.4705C112.242 13.0286 110.258 11.8153 106.658 11.8153ZM120.793 11.8152C124.001 11.8152 125.642 13.2514 125.642 17.3619V24.6667H121.943V17.5352C121.943 15.8762 121.233 15.1334 119.691 15.1334C118.294 15.1334 117.462 15.8762 117.462 17.5352V24.6667H113.764V12.1867H117.241V13.623C117.756 12.6571 118.809 11.8152 120.793 11.8152ZM133.442 16.8419C136.577 17.2629 138.144 18.2533 138.144 20.8534C138.144 23.4781 136.308 25.0381 132.414 25.0381C128.177 25.0381 126.683 23.3297 126.61 20.8285H130.259C130.357 21.7448 130.993 22.1905 132.414 22.1905C133.858 22.1905 134.446 21.8438 134.446 21.1505C134.446 20.5068 133.956 20.2097 132.683 20.0363L131.385 19.8628C128.667 19.4915 127.1 18.4268 127.1 15.9505C127.1 13.5734 128.838 11.8152 132.487 11.8152C135.867 11.8152 137.679 13.1771 137.85 15.8762H134.25C134.128 15.1583 133.736 14.7124 132.487 14.7124C131.263 14.7124 130.798 15.1334 130.798 15.6783C130.798 16.2229 131.092 16.52 132.145 16.6687L133.442 16.8419ZM147.401 19.8135C147.401 21.1753 146.128 22.1905 144.169 22.1905C143.213 22.1905 142.65 21.7448 142.65 20.9028C142.65 20.2591 143.042 19.7144 144.291 19.5411L146.422 19.2438C146.789 19.1945 147.181 19.1201 147.401 19.0458V19.8135ZM145.344 11.8153C141.696 11.8153 139.932 13.2268 139.785 15.8763H143.385C143.434 15.1828 143.826 14.663 145.344 14.663C146.691 14.663 147.328 15.1087 147.328 15.7773C147.328 16.3716 146.961 16.5943 146.055 16.6933L143.703 16.9409C140.52 17.2877 139.075 18.6248 139.075 21.0515C139.075 23.3048 140.446 25.038 143.36 25.038C145.344 25.038 146.52 24.3943 147.548 23.1065V24.6667H150.928V16.4705C150.928 13.0288 148.944 11.8153 145.344 11.8153Z" fill="#FEFBF9"/>
</svg>
