<svg width="117" height="32" viewBox="0 0 117 32" fill="none" xmlns="http://www.w3.org/2000/svg">
<g clip-path="url(#clip0_1_247)">
<path d="M112.942 14.1225V8.8332H107.74V14.1225H104.879V1.58691H107.74V6.55882H112.942V1.58691H115.803V14.1225H112.942Z" fill="#FEFBF9"/>
<path d="M51.5549 1.58691V9.41501C51.5549 10.2613 51.659 11.0547 51.9191 11.6365C52.1792 12.2183 52.5434 12.7472 52.9595 13.1175C53.4278 13.4877 54 13.8051 54.6243 13.9638C55.2486 14.1225 55.9769 14.2282 56.8092 14.2282C57.5896 14.2282 58.3179 14.1225 58.9422 13.9638C59.5665 13.8051 60.0867 13.4877 60.5029 13.1175C60.9191 12.7472 61.2832 12.2183 61.4913 11.6365C61.7514 11.0018 61.8555 10.2613 61.8555 9.41501V1.58691H59.2023V9.36212C59.2023 10.1555 58.9942 10.7902 58.6301 11.2663C58.2659 11.7423 57.6416 12.0068 56.8092 12.0068C55.9769 12.0068 55.3526 11.7423 54.9884 11.2663C54.6243 10.7902 54.4162 10.1555 54.4162 9.36212V1.58691H51.5549Z" fill="#FEFBF9"/>
<path d="M43.3353 14.1225V3.91419H40.0058V1.58691H49.578V2.69766C49.578 3.38526 49.0578 3.91419 48.3815 3.91419H46.1965V14.1225H43.3353Z" fill="#FEFBF9"/>
<path d="M89.1156 1.58691H91.9769V14.1225H89.1156V1.58691Z" fill="#FEFBF9"/>
<path d="M79.6474 8.25138L79.7514 8.35716L83.3931 13.1175C83.8613 13.6993 84.5376 14.0696 85.3179 14.0696H87.6069L82.4046 7.29931L82.3526 7.19353L82.4046 7.08774L86.6705 1.58691H83.7052L79.7514 6.98196L79.6474 7.08774V6.87617V1.58691H76.7861V14.1225H79.6474V8.46295V8.25138Z" fill="#FEFBF9"/>
<path d="M73.0925 14.1225C72.2601 14.1225 71.4277 13.6464 71.0116 12.9588L68.7746 9.25634H67.3699V14.1753H64.5087V1.58691H69.6069C70.9075 1.58691 71.948 1.95716 72.6243 2.59187C73.3526 3.27948 73.7168 4.23154 73.7168 5.34229C73.7168 5.9241 73.5607 6.50592 73.2486 7.08774C72.9364 7.66956 72.4162 8.14559 71.6879 8.51584L71.5318 8.56873L75.0173 14.0696H73.0925V14.1225ZM67.3699 7.29931H69.0347C69.6069 7.29931 70.0751 7.14063 70.3873 6.82328C70.6994 6.50592 70.8555 6.08278 70.8555 5.55386C70.8555 5.02493 70.6994 4.60179 70.4393 4.28444C70.1272 3.96708 69.711 3.8084 69.0867 3.8084H67.422V7.29931H67.3699Z" fill="#FEFBF9"/>
<path d="M94.3179 13.5934V11.2133C95.2023 11.6364 96.3988 12.0595 97.5954 12.0595C99 12.0595 99.6763 11.5835 99.6763 10.6314C99.6763 9.5207 98.7399 9.41491 96.815 8.56863C95.5145 7.98681 94.3179 7.08764 94.3179 4.97194C94.3179 2.53888 96.1387 1.37524 98.6879 1.37524C100.04 1.37524 101.185 1.6926 101.809 1.95706V4.28434C101.185 3.96698 100.04 3.59673 98.8439 3.59673C97.5954 3.59673 97.0231 4.07276 97.0231 4.86615C97.0231 5.71243 97.7514 5.9769 99 6.45293C100.613 7.29921 102.538 7.66946 102.538 10.4728C102.538 12.9058 100.613 14.2281 98.0636 14.2281C96.5549 14.281 95.3064 14.0166 94.3179 13.5934Z" fill="#FEFBF9"/>
<path d="M98.7919 30.4662V17.9307H106.491V19.0414C106.491 19.729 105.971 20.2579 105.295 20.2579H101.601V22.9555H105.763V25.0712H101.601V28.1389H106.491V30.4662H98.7919Z" fill="#FEFBF9"/>
<path d="M70.5954 30.4662V17.9307H72C72.8324 17.9307 73.4566 18.6183 73.4566 19.4117V28.1918H77.9826V30.4662H70.5954Z" fill="#FEFBF9"/>
<path d="M52.9595 30.4662V17.9307H55.8208V30.4662H52.9595Z" fill="#FEFBF9"/>
<path d="M66.9537 30.4662C66.1214 30.4662 65.289 29.9902 64.8728 29.3026L62.6358 25.6001H61.2312V30.5191H58.3699V17.9307H63.4682C64.7688 17.9307 65.8092 18.3009 66.4855 18.9356C67.2139 19.6232 67.578 20.5753 67.578 21.686C67.578 22.2679 67.422 22.8497 67.1098 23.4844C66.7977 24.0662 66.2774 24.5422 65.5491 24.9125L65.3931 24.9654L68.8786 30.4662H66.9537ZM61.2832 23.6431H62.948C63.5722 23.6431 63.9884 23.4844 64.3006 23.167C64.6127 22.8497 64.7688 22.4265 64.7688 21.8976C64.7688 21.3687 64.6127 20.9455 64.3526 20.6282C64.0405 20.3108 63.6243 20.1522 63 20.1522H61.3353L61.2832 23.6431Z" fill="#FEFBF9"/>
<path d="M46.7168 17.9307H43.4393L38.8092 30.4662H40.8382C41.3584 30.4662 41.8266 30.1488 41.9827 29.6199L42.4509 28.1389H47.4451L48.1734 30.4662H51.2428L46.7168 17.9307ZM43.1792 25.9174L44.2717 22.7439C44.5318 22.0563 44.7919 21.2629 44.948 20.734H45C45.1561 21.3158 45.4162 22.0034 45.6243 22.7439L46.7168 25.9174H43.1792Z" fill="#FEFBF9"/>
<path d="M108.78 29.9372V27.557C109.665 27.9802 110.861 28.4033 112.058 28.4033C113.462 28.4033 114.139 27.9273 114.139 26.9752C114.139 25.8644 113.202 25.7587 111.277 24.9124C109.977 24.3306 108.78 23.4314 108.78 21.3157C108.78 18.8826 110.601 17.719 113.15 17.719C114.503 17.719 115.647 18.0363 116.272 18.3008V20.6281C115.647 20.3107 114.503 19.9405 113.306 19.9405C112.058 19.9405 111.486 20.4165 111.486 21.2099C111.486 22.0562 112.214 22.3206 113.462 22.7967C115.075 23.643 117 24.0132 117 26.8165C117 29.2496 115.075 30.5719 112.526 30.5719C111.017 30.6248 109.769 30.3603 108.78 29.9372Z" fill="#FEFBF9"/>
<path d="M85.3179 17.9307H87.0867C87.9191 17.9307 88.6994 18.3538 89.1676 19.0943L92.6012 24.7009C92.9653 25.3356 93.4335 26.129 93.6936 26.7108H93.7457C93.6936 26.129 93.6936 25.3885 93.6936 24.8067V17.9307H96.1907V30.4662H93.0694L88.9075 23.696C88.5433 23.0612 88.1272 22.3207 87.815 21.7389H87.763C87.763 22.2679 87.815 22.9026 87.815 23.5373V30.4662H85.3179V17.9307Z" fill="#FEFBF9"/>
<path d="M79.8555 17.9307H82.7168V30.4662H79.8555V17.9307Z" fill="#FEFBF9"/>
<path d="M17.3757 0.105785C25.2832 0.952066 31.474 7.72231 31.474 16.0264C31.474 24.8595 24.4509 32 15.763 32C7.07514 32 0 24.8595 0 16.0264C0 7.19339 7.02312 0 15.763 0C16.2832 0 16.8555 0.0528926 17.3757 0.105785ZM18.2081 30.8893C26.2717 29.514 31.7341 21.7388 30.3815 13.4876C29.237 6.66446 23.7746 1.69256 17.3237 1.00496C16.0231 0.846281 14.6705 0.899173 13.3179 1.11074C11.7052 1.37521 10.1965 1.90413 8.84393 2.64463C15.9191 5.13058 19.7688 8.88595 20.0289 12.6942C20.185 15.0744 19.0925 16.7669 17.6358 18.1421L27.7283 17.4545C27.9884 17.4545 28.0925 17.7719 27.7803 17.8777L3.69364 24.8595C6.13873 28.2975 9.93641 30.5719 14.1503 30.995C15.5029 31.1537 16.8555 31.1537 18.2081 30.8893ZM11.6012 16.3438C12.9017 11.319 11.3931 6.02975 7.80347 3.22645C2.91329 6.4 0.0520231 12.324 1.09249 18.5124C1.40462 20.5752 2.13295 22.4264 3.17341 24.0661C7.02312 23.0083 10.4046 20.9455 11.6012 16.3438Z" fill="#FEFBF9"/>
<path d="M18.2081 30.8892C26.2717 29.514 31.7341 21.7387 30.3815 13.4875C29.237 6.66436 23.7746 1.69246 17.3237 1.00486C16.0231 0.846182 14.6705 0.899075 13.3179 1.11065C11.7052 1.37511 10.1965 1.90403 8.84393 2.64453C15.9191 5.13048 19.7688 8.88585 20.0289 12.6941C20.185 15.0743 19.0925 16.7668 17.6358 18.142L27.7283 17.4544C27.9884 17.4544 28.0925 17.7718 27.7803 17.8776L3.69365 24.8594C6.13873 28.2974 9.93642 30.5718 14.1503 30.9949C15.5029 31.1536 16.8555 31.1536 18.2081 30.8892ZM11.6012 16.3437C12.9017 11.3189 11.3931 6.02965 7.80347 3.22635C2.9133 6.3999 0.0520275 12.3239 1.09249 18.5123C1.40463 20.5751 2.13295 22.4263 3.17341 24.066C7.02313 23.0082 10.4046 20.9454 11.6012 16.3437Z" fill="white" fill-opacity="0.1"/>
</g>
<defs>
<clipPath id="clip0_1_247">
<rect width="117" height="32" fill="white"/>
</clipPath>
</defs>
</svg>
