<svg width="137" height="42" viewBox="0 0 137 42" fill="none" xmlns="http://www.w3.org/2000/svg">
<path fill-rule="evenodd" clip-rule="evenodd" d="M136.917 37.7899C136.917 40.1159 135.166 42 133.001 42H4.83846C2.67397 42 0.917053 40.1159 0.917053 37.7899V4.21561C0.917053 1.8907 2.67397 0 4.83846 0H133C135.166 0 136.916 1.8907 136.916 4.21561L136.917 37.7899Z" fill="#0A2632"/>
<path fill-rule="evenodd" clip-rule="evenodd" d="M31.2775 20.2217C31.2483 16.9274 33.9369 15.3247 34.0598 15.2501C32.5372 12.9983 30.1771 12.6906 29.3477 12.6661C27.3656 12.4545 25.4428 13.8692 24.4331 13.8692C23.4032 13.8692 21.8483 12.6865 20.1725 12.7213C18.016 12.755 15.9985 14.0214 14.892 15.988C12.6086 19.9979 14.3116 25.8904 16.4994 29.1316C17.5937 30.719 18.8725 32.4914 20.5463 32.429C22.1839 32.3605 22.7956 31.3701 24.7717 31.3701C26.7297 31.3701 27.3041 32.429 29.0112 32.3892C30.7686 32.3605 31.8751 30.7946 32.9312 29.193C34.1959 27.3736 34.7037 25.5818 34.7239 25.4898C34.6826 25.4755 31.3108 24.1702 31.2775 20.2217Z" fill="#FEFBF9"/>
<path fill-rule="evenodd" clip-rule="evenodd" d="M28.0528 10.534C28.9335 9.4168 29.5362 7.89689 29.3689 6.35449C28.0941 6.41173 26.4999 7.24886 25.5819 8.34152C24.7697 9.30436 24.0441 10.8825 24.2315 12.3667C25.6635 12.475 27.1338 11.6338 28.0528 10.534Z" fill="#FEFBF9"/>
<path fill-rule="evenodd" clip-rule="evenodd" d="M54.976 32.2012H52.6875L51.4339 28.2057H47.0765L45.8824 32.2012H43.6543L47.9714 18.5986H50.6378L54.976 32.2012ZM51.056 26.5294L49.9223 22.9774C49.8024 22.6146 49.5777 21.7601 49.2461 20.415H49.2058C49.0738 20.9935 48.8612 21.848 48.5689 22.9774L47.4554 26.5294H51.056Z" fill="#FEFBF9"/>
<path fill-rule="evenodd" clip-rule="evenodd" d="M66.078 27.1763C66.078 28.8445 65.6336 30.163 64.7448 31.131C63.9487 31.9926 62.9601 32.4229 61.7801 32.4229C60.5063 32.4229 59.5913 31.9589 59.0341 31.0308H58.9937V36.1977H56.8453V25.6217C56.8453 24.573 56.8181 23.4967 56.7657 22.3928H58.6552L58.7751 23.9474H58.8154C59.5319 22.7761 60.6192 22.1914 62.0784 22.1914C63.2191 22.1914 64.1714 22.6483 64.9332 23.5631C65.6971 24.4789 66.078 25.683 66.078 27.1763ZM63.8892 27.2561C63.8892 26.3014 63.6776 25.5144 63.2524 24.8949C62.7878 24.249 62.164 23.926 61.382 23.926C60.852 23.926 60.3703 24.1059 59.94 24.4605C59.5087 24.8183 59.2265 25.2854 59.0945 25.8639C59.028 26.1338 58.9948 26.3545 58.9948 26.5283V28.1637C58.9948 28.8772 59.2104 29.4792 59.6417 29.9709C60.073 30.4625 60.6333 30.7078 61.3226 30.7078C62.1318 30.7078 62.7616 30.3909 63.212 29.7593C63.6635 29.1266 63.8892 28.2925 63.8892 27.2561Z" fill="#FEFBF9"/>
<path fill-rule="evenodd" clip-rule="evenodd" d="M77.2002 27.1763C77.2002 28.8445 76.7557 30.163 75.8659 31.131C75.0708 31.9926 74.0823 32.4229 72.9022 32.4229C71.6285 32.4229 70.7135 31.9589 70.1572 31.0308H70.1169V36.1977H67.9685V25.6217C67.9685 24.573 67.9413 23.4967 67.8889 22.3928H69.7783L69.8982 23.9474H69.9385C70.654 22.7761 71.7414 22.1914 73.2015 22.1914C74.3413 22.1914 75.2936 22.6483 76.0574 23.5631C76.8182 24.4789 77.2002 25.683 77.2002 27.1763ZM75.0114 27.2561C75.0114 26.3014 74.7988 25.5144 74.3735 24.8949C73.909 24.249 73.2872 23.926 72.5042 23.926C71.9731 23.926 71.4924 24.1059 71.0611 24.4605C70.6298 24.8183 70.3487 25.2854 70.2167 25.8639C70.1512 26.1338 70.1169 26.3545 70.1169 26.5283V28.1637C70.1169 28.8772 70.3326 29.4792 70.7619 29.9709C71.1932 30.4615 71.7534 30.7078 72.4447 30.7078C73.2539 30.7078 73.8838 30.3909 74.3342 29.7593C74.7857 29.1266 75.0114 28.2925 75.0114 27.2561Z" fill="#FEFBF9"/>
<path fill-rule="evenodd" clip-rule="evenodd" d="M89.6354 28.3867C89.6354 29.5437 89.2393 30.4851 88.4443 31.2118C87.5706 32.006 86.3543 32.4026 84.7913 32.4026C83.3482 32.4026 82.1914 32.1205 81.3157 31.5553L81.8135 29.7389C82.7567 30.3175 83.7916 30.6078 84.9193 30.6078C85.7285 30.6078 86.3583 30.4217 86.8107 30.0517C87.2612 29.6817 87.4859 29.1849 87.4859 28.5655C87.4859 28.0136 87.3005 27.5485 86.9287 27.1713C86.5588 26.7942 85.9411 26.4436 85.0785 26.1196C82.7305 25.2313 81.5575 23.9302 81.5575 22.2191C81.5575 21.1009 81.9687 20.1841 82.792 19.4706C83.6123 18.7561 84.7066 18.3994 86.0751 18.3994C87.2955 18.3994 88.3092 18.6151 89.1184 19.0454L88.5813 20.8219C87.8255 20.4048 86.971 20.1963 86.0147 20.1963C85.2589 20.1963 84.6683 20.3854 84.2451 20.7616C83.8874 21.0978 83.708 21.5077 83.708 21.9932C83.708 22.5309 83.9126 22.9755 84.3237 23.3251C84.6814 23.6481 85.3314 23.9976 86.2746 24.3748C87.4285 24.846 88.276 25.3969 88.8211 26.0286C89.3643 26.6582 89.6354 27.4463 89.6354 28.3867Z" fill="#FEFBF9"/>
<path fill-rule="evenodd" clip-rule="evenodd" d="M96.7388 24.0283H94.3706V28.7904C94.3706 30.0016 94.7878 30.6067 95.6242 30.6067C96.0082 30.6067 96.3266 30.573 96.5785 30.5056L96.638 32.1604C96.2148 32.3209 95.6575 32.4016 94.9672 32.4016C94.1187 32.4016 93.4556 32.1389 92.977 31.6146C92.5003 31.0892 92.2605 30.2081 92.2605 28.9703V24.0263H90.8497V22.3908H92.2605V20.595L94.3706 19.949V22.3908H96.7388V24.0283Z" fill="#FEFBF9"/>
<path fill-rule="evenodd" clip-rule="evenodd" d="M107.424 27.2164C107.424 28.7241 106.998 29.9619 106.15 30.9298C105.26 31.9264 104.079 32.4231 102.607 32.4231C101.188 32.4231 100.058 31.9458 99.2157 30.9911C98.3733 30.0365 97.9521 28.8314 97.9521 27.3789C97.9521 25.859 98.3854 24.6141 99.255 23.6461C100.123 22.6771 101.294 22.1926 102.766 22.1926C104.185 22.1926 105.327 22.67 106.188 23.6257C107.012 24.5527 107.424 25.7496 107.424 27.2164ZM105.195 27.2869C105.195 26.3823 105.004 25.6065 104.618 24.9595C104.168 24.1766 103.524 23.7861 102.689 23.7861C101.826 23.7861 101.17 24.1776 100.719 24.9595C100.333 25.6076 100.143 26.3956 100.143 27.3278C100.143 28.2324 100.333 29.0082 100.719 29.6542C101.184 30.4371 101.833 30.8276 102.67 30.8276C103.49 30.8276 104.134 30.429 104.599 29.6337C104.995 28.9745 105.195 28.1905 105.195 27.2869Z" fill="#FEFBF9"/>
<path fill-rule="evenodd" clip-rule="evenodd" d="M114.407 24.3093C114.194 24.2694 113.968 24.249 113.73 24.249C112.974 24.249 112.39 24.5382 111.978 25.1178C111.621 25.6288 111.441 26.2748 111.441 27.0547V32.2011H109.294L109.314 25.4816C109.314 24.3512 109.287 23.3219 109.233 22.3938H111.105L111.183 24.2704H111.243C111.47 23.6255 111.827 23.1062 112.317 22.7168C112.796 22.3662 113.313 22.1914 113.87 22.1914C114.068 22.1914 114.248 22.2057 114.407 22.2313V24.3093Z" fill="#FEFBF9"/>
<path fill-rule="evenodd" clip-rule="evenodd" d="M124.016 26.833C124.016 27.2234 123.99 27.5526 123.937 27.8214H117.492C117.517 28.7904 117.828 29.5314 118.427 30.0425C118.97 30.4994 119.672 30.7283 120.535 30.7283C121.489 30.7283 122.36 30.574 123.143 30.2643L123.48 31.777C122.565 32.1818 121.484 32.3832 120.238 32.3832C118.738 32.3832 117.561 31.9355 116.705 31.0411C115.85 30.1467 115.422 28.9457 115.422 27.4391C115.422 25.9601 115.82 24.7284 116.617 23.7462C117.451 22.6974 118.579 22.1731 119.998 22.1731C121.392 22.1731 122.447 22.6974 123.163 23.7462C123.73 24.5792 124.016 25.6095 124.016 26.833ZM121.967 26.2678C121.981 25.6218 121.841 25.0637 121.55 24.5925C121.178 23.9864 120.607 23.6838 119.838 23.6838C119.135 23.6838 118.564 23.9792 118.128 24.572C117.77 25.0432 117.557 25.6085 117.492 26.2667H121.967V26.2678Z" fill="#FEFBF9"/>
<path fill-rule="evenodd" clip-rule="evenodd" d="M50.3455 10.2306C50.3455 11.4336 49.9898 12.3392 49.2794 12.9474C48.6213 13.5085 47.6862 13.7896 46.4749 13.7896C45.8743 13.7896 45.3603 13.763 44.9301 13.7099V7.13657C45.4914 7.04458 46.096 6.99756 46.749 6.99756C47.9028 6.99756 48.7725 7.25207 49.359 7.76109C50.016 8.33655 50.3455 9.15937 50.3455 10.2306ZM49.232 10.2602C49.232 9.48032 49.0284 8.88237 48.6213 8.46534C48.2142 8.04933 47.6196 7.84082 46.8367 7.84082C46.5041 7.84082 46.2209 7.8633 45.9861 7.91032V12.9075C46.1161 12.928 46.354 12.9372 46.6996 12.9372C47.5078 12.9372 48.1316 12.7092 48.5709 12.2534C49.0103 11.7975 49.232 11.1331 49.232 10.2602Z" fill="#FEFBF9"/>
<path fill-rule="evenodd" clip-rule="evenodd" d="M56.2497 11.2814C56.2497 12.0224 56.0411 12.6296 55.6239 13.1059C55.1866 13.5955 54.6072 13.8398 53.8836 13.8398C53.1863 13.8398 52.631 13.6057 52.2169 13.1355C51.8037 12.6664 51.5971 12.0746 51.5971 11.3611C51.5971 10.615 51.8097 10.0027 52.237 9.52741C52.6643 9.05212 53.2387 8.81396 53.9622 8.81396C54.6596 8.81396 55.2198 9.04803 55.6441 9.51719C56.0472 9.97306 56.2497 10.5618 56.2497 11.2814ZM55.1543 11.3161C55.1543 10.8715 55.0596 10.4903 54.8712 10.1724C54.6495 9.78806 54.3341 9.5959 53.9239 9.5959C53.4997 9.5959 53.1772 9.78806 52.9555 10.1724C52.7661 10.4903 52.6723 10.8776 52.6723 11.3356C52.6723 11.7802 52.7671 12.1614 52.9555 12.4793C53.1843 12.8637 53.5027 13.0558 53.9138 13.0558C54.3169 13.0558 54.6334 12.8606 54.8611 12.4691C55.0566 12.1451 55.1543 11.7608 55.1543 11.3161Z" fill="#FEFBF9"/>
<path fill-rule="evenodd" clip-rule="evenodd" d="M64.1663 8.91211L62.6799 13.7304H61.7125L61.0968 11.6381C60.9406 11.1158 60.8137 10.5966 60.7149 10.0814H60.6958C60.6041 10.6109 60.4771 11.1291 60.3138 11.6381L59.6598 13.7304H58.6813L57.2836 8.91211H58.3689L58.9061 11.2027C59.036 11.7444 59.1429 12.2606 59.2285 12.7492H59.2477C59.3263 12.3465 59.4563 11.8334 59.6397 11.2129L60.3138 8.91313H61.1744L61.8204 11.1639C61.9766 11.7128 62.1035 12.2412 62.2013 12.7502H62.2305C62.3021 12.2545 62.4099 11.726 62.553 11.1639L63.1294 8.91313H64.1663V8.91211Z" fill="#FEFBF9"/>
<path fill-rule="evenodd" clip-rule="evenodd" d="M69.6413 13.7303H68.5852V10.9706C68.5852 10.1201 68.2667 9.69494 67.6279 9.69494C67.3145 9.69494 67.0615 9.81146 66.865 10.0455C66.6705 10.2796 66.5718 10.5556 66.5718 10.8714V13.7293H65.5157V10.2888C65.5157 9.86563 65.5026 9.40669 65.4774 8.90994H66.4055L66.4549 9.66325H66.4841C66.607 9.42918 66.7904 9.236 67.0313 9.08166C67.3175 8.90176 67.6379 8.81079 67.9886 8.81079C68.432 8.81079 68.8008 8.95593 69.0941 9.24724C69.4589 9.60397 69.6413 10.1365 69.6413 10.8438V13.7303Z" fill="#FEFBF9"/>
<path fill-rule="evenodd" clip-rule="evenodd" d="M72.5536 13.7304H71.4985V6.70117H72.5536V13.7304Z" fill="#FEFBF9"/>
<path fill-rule="evenodd" clip-rule="evenodd" d="M78.7712 11.2814C78.7712 12.0224 78.5626 12.6296 78.1454 13.1059C77.708 13.5955 77.1276 13.8398 76.4051 13.8398C75.7067 13.8398 75.1515 13.6057 74.7383 13.1355C74.3251 12.6664 74.1186 12.0746 74.1186 11.3611C74.1186 10.615 74.3312 10.0027 74.7585 9.52741C75.1857 9.05212 75.7601 8.81396 76.4827 8.81396C77.181 8.81396 77.7403 9.04803 78.1655 9.51719C78.5686 9.97306 78.7712 10.5618 78.7712 11.2814ZM77.6748 11.3161C77.6748 10.8715 77.5801 10.4903 77.3916 10.1724C77.1709 9.78806 76.8545 9.5959 76.4454 9.5959C76.0201 9.5959 75.6977 9.78806 75.477 10.1724C75.2875 10.4903 75.1938 10.8776 75.1938 11.3356C75.1938 11.7802 75.2885 12.1614 75.477 12.4793C75.7057 12.8637 76.0242 13.0558 76.4353 13.0558C76.8384 13.0558 77.1538 12.8606 77.3815 12.4691C77.578 12.1451 77.6748 11.7608 77.6748 11.3161Z" fill="#FEFBF9"/>
<path fill-rule="evenodd" clip-rule="evenodd" d="M83.8823 13.7304H82.9341L82.8555 13.1754H82.8262C82.5017 13.618 82.0392 13.8398 81.4386 13.8398C80.9902 13.8398 80.6274 13.6936 80.3543 13.4033C80.1064 13.1396 79.9825 12.8115 79.9825 12.4221C79.9825 11.8333 80.2243 11.3846 80.711 11.0739C81.1968 10.7632 81.88 10.6109 82.7597 10.618V10.5281C82.7597 9.89334 82.4312 9.57648 81.7732 9.57648C81.3046 9.57648 80.8914 9.69606 80.5347 9.9332L80.32 9.22997C80.7614 8.95297 81.3066 8.81396 81.9495 8.81396C83.191 8.81396 83.8138 9.47835 83.8138 10.8071V12.5815C83.8138 13.063 83.837 13.4463 83.8823 13.7304ZM82.7859 12.0746V11.3315C81.621 11.311 81.0385 11.635 81.0385 12.3025C81.0385 12.5539 81.105 12.742 81.2411 12.8677C81.3771 12.9935 81.5505 13.0558 81.757 13.0558C81.9888 13.0558 82.2055 12.9812 82.403 12.833C82.6015 12.6838 82.7234 12.4947 82.7688 12.2626C82.7799 12.2105 82.7859 12.1471 82.7859 12.0746Z" fill="#FEFBF9"/>
<path fill-rule="evenodd" clip-rule="evenodd" d="M89.8833 13.7304H88.9461L88.8967 12.9566H88.8675C88.5682 13.5454 88.0583 13.8397 87.3418 13.8397C86.7694 13.8397 86.2928 13.6118 85.9149 13.1559C85.537 12.7001 85.3485 12.1082 85.3485 11.3815C85.3485 10.6016 85.5531 9.96995 85.9643 9.4875C86.3623 9.03777 86.85 8.8129 87.4305 8.8129C88.0684 8.8129 88.5148 9.03061 88.7687 9.46706H88.7889V6.70117H89.846V12.4323C89.846 12.9014 89.8581 13.3338 89.8833 13.7304ZM88.7889 11.6984V10.895C88.7889 10.756 88.7788 10.6435 88.7597 10.5577C88.7002 10.3001 88.5722 10.0834 88.3777 9.90862C88.1812 9.73384 87.9444 9.64593 87.6713 9.64593C87.2773 9.64593 86.9689 9.80436 86.7422 10.1222C86.5175 10.4401 86.4036 10.8459 86.4036 11.3417C86.4036 11.818 86.5114 12.2043 86.7281 12.5018C86.9569 12.8186 87.2652 12.9771 87.6512 12.9771C87.9978 12.9771 88.2749 12.8452 88.4856 12.5805C88.6891 12.3362 88.7889 12.0418 88.7889 11.6984Z" fill="#FEFBF9"/>
<path fill-rule="evenodd" clip-rule="evenodd" d="M98.9154 11.2814C98.9154 12.0224 98.7068 12.6296 98.2896 13.1059C97.8523 13.5955 97.2738 13.8398 96.5493 13.8398C95.853 13.8398 95.2977 13.6057 94.8825 13.1355C94.4694 12.6664 94.2628 12.0746 94.2628 11.3611C94.2628 10.615 94.4754 10.0027 94.9027 9.52741C95.33 9.05212 95.9044 8.81396 96.6289 8.81396C97.3252 8.81396 97.8865 9.04803 98.3098 9.51719C98.7129 9.97306 98.9154 10.5618 98.9154 11.2814ZM97.821 11.3161C97.821 10.8715 97.7263 10.4903 97.5379 10.1724C97.3152 9.78806 97.0008 9.5959 96.5896 9.5959C96.1664 9.5959 95.8439 9.78806 95.6212 10.1724C95.4317 10.4903 95.338 10.8776 95.338 11.3356C95.338 11.7802 95.4327 12.1614 95.6212 12.4793C95.8499 12.8637 96.1684 13.0558 96.5795 13.0558C96.9826 13.0558 97.3 12.8606 97.5278 12.4691C97.7223 12.1451 97.821 11.7608 97.821 11.3161Z" fill="#FEFBF9"/>
<path fill-rule="evenodd" clip-rule="evenodd" d="M104.594 13.7303H103.539V10.9706C103.539 10.1201 103.22 9.69494 102.58 9.69494C102.267 9.69494 102.014 9.81146 101.819 10.0455C101.623 10.2796 101.525 10.5556 101.525 10.8714V13.7293H100.468V10.2888C100.468 9.86563 100.456 9.40669 100.431 8.90994H101.358L101.408 9.66325H101.437C101.561 9.42918 101.744 9.236 101.984 9.08166C102.271 8.90176 102.591 8.81079 102.942 8.81079C103.385 8.81079 103.753 8.95593 104.047 9.24724C104.413 9.60397 104.594 10.1365 104.594 10.8438V13.7303Z" fill="#FEFBF9"/>
<path fill-rule="evenodd" clip-rule="evenodd" d="M111.701 9.71451H110.538V12.0552C110.538 12.6501 110.745 12.9475 111.154 12.9475C111.344 12.9475 111.501 12.9312 111.625 12.8974L111.652 13.71C111.443 13.7898 111.169 13.8296 110.832 13.8296C110.414 13.8296 110.09 13.7008 109.855 13.4433C109.619 13.1857 109.502 12.7523 109.502 12.1441V9.71451H108.808V8.91214H109.502V8.02902L110.537 7.71216V8.91112H111.7V9.71451H111.701Z" fill="#FEFBF9"/>
<path fill-rule="evenodd" clip-rule="evenodd" d="M117.292 13.7304H116.235V10.9911C116.235 10.1274 115.917 9.695 115.279 9.695C114.789 9.695 114.454 9.94542 114.271 10.4463C114.24 10.5515 114.222 10.6803 114.222 10.8316V13.7294H113.167V6.70117H114.222V9.60505H114.242C114.574 9.07661 115.051 8.8129 115.669 8.8129C116.106 8.8129 116.468 8.95804 116.755 9.24935C117.113 9.6122 117.292 10.1519 117.292 10.8653V13.7304Z" fill="#FEFBF9"/>
<path fill-rule="evenodd" clip-rule="evenodd" d="M123.059 11.0932C123.059 11.2854 123.045 11.4469 123.02 11.5788H119.853C119.867 12.0551 120.018 12.4179 120.311 12.6694C120.579 12.8942 120.925 13.0067 121.348 13.0067C121.817 13.0067 122.244 12.931 122.629 12.7787L122.794 13.5228C122.344 13.7211 121.814 13.8203 121.2 13.8203C120.464 13.8203 119.885 13.6005 119.466 13.161C119.045 12.7215 118.836 12.1317 118.836 11.3917C118.836 10.665 119.03 10.0599 119.422 9.57742C119.832 9.06226 120.385 8.80469 121.083 8.80469C121.766 8.80469 122.285 9.06226 122.636 9.57742C122.919 9.98627 123.059 10.4922 123.059 11.0932ZM122.052 10.8162C122.06 10.4984 121.99 10.2244 121.847 9.99343C121.664 9.69599 121.384 9.54676 121.007 9.54676C120.662 9.54676 120.381 9.6919 120.166 9.98321C119.991 10.2152 119.887 10.4922 119.853 10.8162H122.052Z" fill="#FEFBF9"/>
</svg>
