<svg width="138" height="42" viewBox="0 0 138 42" fill="none" xmlns="http://www.w3.org/2000/svg">
<path fill-rule="evenodd" clip-rule="evenodd" d="M137.083 37.7899C137.083 40.1159 135.332 42 133.167 42H5.00435C2.83987 42 1.08295 40.1159 1.08295 37.7899V4.21561C1.08295 1.8907 2.83987 0 5.00435 0H133.166C135.332 0 137.082 1.8907 137.082 4.21561L137.083 37.7899Z" fill="#0A2632"/>
<path fill-rule="evenodd" clip-rule="evenodd" d="M47.9685 10.3194C47.9685 11.1604 47.7201 11.8335 47.232 12.3359C46.6692 12.9318 45.9374 13.2314 45.0414 13.2314C44.1837 13.2314 43.452 12.9266 42.8517 12.3261C42.2506 11.7165 41.9499 10.9686 41.9499 10.0742C41.9499 9.17834 42.2506 8.43103 42.8517 7.82625C43.452 7.2206 44.1837 6.91577 45.0414 6.91577C45.4675 6.91577 45.8746 7.00495 46.2632 7.17185C46.6499 7.33875 46.9651 7.565 47.1932 7.84517L46.675 8.37626C46.2769 7.8988 45.7344 7.66336 45.0414 7.66336C44.4158 7.66336 43.8736 7.88589 43.4134 8.33267C42.9581 8.78031 42.73 9.36129 42.73 10.0742C42.73 10.7859 42.9581 11.3718 43.4134 11.8197C43.8736 12.2625 44.4158 12.4887 45.0414 12.4887C45.7045 12.4887 46.2632 12.2625 46.7032 11.8146C46.993 11.5189 47.1583 11.1105 47.2019 10.5895H45.0414V9.86255H47.9242C47.9579 10.0197 47.9685 10.1714 47.9685 10.3194Z" fill="#FEFBF9"/>
<path fill-rule="evenodd" clip-rule="evenodd" d="M47.9685 10.3194C47.9685 11.1604 47.7201 11.8335 47.232 12.3359C46.6692 12.9318 45.9374 13.2314 45.0414 13.2314C44.1837 13.2314 43.452 12.9266 42.8517 12.3261C42.2506 11.7165 41.9499 10.9686 41.9499 10.0742C41.9499 9.17834 42.2506 8.43103 42.8517 7.82625C43.452 7.2206 44.1837 6.91577 45.0414 6.91577C45.4675 6.91577 45.8746 7.00495 46.2632 7.17185C46.6499 7.33875 46.9651 7.565 47.1932 7.84517L46.675 8.37626C46.2769 7.8988 45.7344 7.66336 45.0414 7.66336C44.4158 7.66336 43.8736 7.88589 43.4134 8.33267C42.9581 8.78031 42.73 9.36129 42.73 10.0742C42.73 10.7859 42.9581 11.3718 43.4134 11.8197C43.8736 12.2625 44.4158 12.4887 45.0414 12.4887C45.7045 12.4887 46.2632 12.2625 46.7032 11.8146C46.993 11.5189 47.1583 11.1105 47.2019 10.5895H45.0414V9.86255H47.9242C47.9579 10.0197 47.9685 10.1714 47.9685 10.3194Z" stroke="#FEFBF9" stroke-width="0.664125"/>
<path fill-rule="evenodd" clip-rule="evenodd" d="M52.5411 7.79515H49.8335V9.70959H52.2753V10.4374H49.8335V12.3515H52.5411V13.0934H49.0679V7.05444H52.5411V7.79515Z" fill="#FEFBF9"/>
<path fill-rule="evenodd" clip-rule="evenodd" d="M52.5411 7.79515H49.8335V9.70959H52.2753V10.4374H49.8335V12.3515H52.5411V13.0934H49.0679V7.05444H52.5411V7.79515Z" stroke="#FEFBF9" stroke-width="0.664125"/>
<path fill-rule="evenodd" clip-rule="evenodd" d="M55.769 13.0934H55.0023V7.79515H53.3416V7.05444H57.4307V7.79515H55.769V13.0934Z" fill="#FEFBF9"/>
<path fill-rule="evenodd" clip-rule="evenodd" d="M55.769 13.0934H55.0023V7.79515H53.3416V7.05444H57.4307V7.79515H55.769V13.0934Z" stroke="#FEFBF9" stroke-width="0.664125"/>
<mask id="mask0_1_232" style="mask-type:alpha" maskUnits="userSpaceOnUse" x="0" y="0" width="135" height="41">
<path fill-rule="evenodd" clip-rule="evenodd" d="M0.917053 40.2928H134.874V0H0.917053V40.2928Z" fill="white"/>
</mask>
<g mask="url(#mask0_1_232)">
<path fill-rule="evenodd" clip-rule="evenodd" d="M60.3908 13.0936H61.3214V7.05469H60.3908V13.0936Z" fill="#FEFBF9"/>
<path fill-rule="evenodd" clip-rule="evenodd" d="M60.3908 13.0936H61.3214V7.05469H60.3908V13.0936Z" stroke="#FEFBF9" stroke-width="0.664125"/>
<path fill-rule="evenodd" clip-rule="evenodd" d="M64.5476 13.0934H63.7879V7.79515H62.1202V7.05444H66.2152V7.79515H64.5476V13.0934Z" fill="#FEFBF9"/>
<path fill-rule="evenodd" clip-rule="evenodd" d="M64.5476 13.0934H63.7879V7.79515H62.1202V7.05444H66.2152V7.79515H64.5476V13.0934Z" stroke="#FEFBF9" stroke-width="0.664125"/>
<path fill-rule="evenodd" clip-rule="evenodd" d="M70.1583 11.8097C70.6 12.2625 71.1366 12.4887 71.7765 12.4887C72.4117 12.4887 72.9542 12.2625 73.39 11.8097C73.8306 11.3577 74.0542 10.777 74.0542 10.0742C74.0542 9.37018 73.8306 8.7892 73.39 8.33754C72.9542 7.88561 72.4117 7.6582 71.7765 7.6582C71.1366 7.6582 70.6 7.88561 70.1583 8.33754C69.7174 8.7892 69.4941 9.37018 69.4941 10.0742C69.4941 10.777 69.7174 11.3577 70.1583 11.8097ZM73.9573 12.3161C73.3707 12.9266 72.6434 13.2314 71.7765 13.2314C70.9046 13.2314 70.1775 12.9266 69.5909 12.3161C69.006 11.7064 68.714 10.9588 68.714 10.0742C68.714 9.18837 69.006 8.44049 69.5909 7.83083C70.1775 7.2206 70.9046 6.91577 71.7765 6.91577C72.6389 6.91577 73.3657 7.2206 73.9526 7.836C74.5422 8.45082 74.8343 9.19325 74.8343 10.0742C74.8343 10.9588 74.5422 11.7064 73.9573 12.3161Z" fill="#FEFBF9"/>
<path d="M70.1583 11.8097L70.396 11.5778L70.396 11.5778L70.1583 11.8097ZM73.39 11.8097L73.1522 11.5779L73.1507 11.5794L73.39 11.8097ZM73.39 8.33754L73.151 8.56805L73.1523 8.56941L73.39 8.33754ZM70.1583 8.33754L69.9208 8.10545L69.9207 8.1056L70.1583 8.33754ZM73.9573 12.3161L74.1968 12.5462L74.1969 12.546L73.9573 12.3161ZM69.5909 12.3161L69.3513 12.546L69.3515 12.5462L69.5909 12.3161ZM69.5909 7.83083L69.3516 7.60071L69.3513 7.60094L69.5909 7.83083ZM73.9526 7.836L73.7123 8.06517L73.7129 8.06584L73.9526 7.836ZM69.9206 12.0415C70.4252 12.5588 71.0477 12.8208 71.7765 12.8208V12.1567C71.2255 12.1567 70.7748 11.9661 70.396 11.5778L69.9206 12.0415ZM71.7765 12.8208C72.4997 12.8208 73.1293 12.5594 73.6292 12.04L73.1507 11.5794C72.7791 11.9655 72.3237 12.1567 71.7765 12.1567V12.8208ZM73.6278 12.0415C74.1354 11.5208 74.3863 10.8537 74.3863 10.0742H73.7221C73.7221 10.7004 73.5257 11.1947 73.1522 11.5779L73.6278 12.0415ZM74.3863 10.0742C74.3863 9.29366 74.1355 8.62623 73.6277 8.10567L73.1523 8.56941C73.5256 8.95216 73.7221 9.4467 73.7221 10.0742H74.3863ZM73.629 8.10704C73.1294 7.58894 72.5001 7.32614 71.7765 7.32614V7.99026C72.3233 7.99026 72.7789 8.18227 73.151 8.56805L73.629 8.10704ZM71.7765 7.32614C71.0473 7.32614 70.425 7.58954 69.9208 8.10545L70.3958 8.56964C70.7749 8.18167 71.2259 7.99026 71.7765 7.99026V7.32614ZM69.9207 8.1056C69.4125 8.62625 69.162 9.29376 69.162 10.0742H69.8261C69.8261 9.4466 70.0224 8.95215 70.3959 8.56949L69.9207 8.1056ZM69.162 10.0742C69.162 10.8536 69.4125 11.5207 69.9206 12.0415L70.396 11.5778C70.0223 11.1947 69.8261 10.7005 69.8261 10.0742H69.162ZM73.7179 12.086C73.1957 12.6295 72.5557 12.8994 71.7765 12.8994V13.5635C72.7312 13.5635 73.5458 13.2237 74.1968 12.5462L73.7179 12.086ZM71.7765 12.8994C70.992 12.8994 70.3524 12.6293 69.8304 12.086L69.3515 12.5462C70.0027 13.2239 70.8171 13.5635 71.7765 13.5635V12.8994ZM69.8306 12.0862C69.3081 11.5416 69.0461 10.8778 69.0461 10.0742H68.3819C68.3819 11.0399 68.704 11.8712 69.3513 12.546L69.8306 12.0862ZM69.0461 10.0742C69.0461 9.26933 69.3082 8.60522 69.8306 8.06072L69.3513 7.60094C68.7039 8.27576 68.3819 9.10741 68.3819 10.0742H69.0461ZM69.8303 8.06095C70.3524 7.5179 70.992 7.24783 71.7765 7.24783V6.58371C70.8171 6.58371 70.0027 6.9233 69.3516 7.60071L69.8303 8.06095ZM71.7765 7.24783C72.5507 7.24783 73.1898 7.51729 73.7123 8.06516L74.1929 7.60683C73.5416 6.92392 72.7272 6.58371 71.7765 6.58371V7.24783ZM73.7129 8.06584C74.241 8.61641 74.5022 9.27549 74.5022 10.0742H75.1663C75.1663 9.111 74.8435 8.28522 74.1922 7.60615L73.7129 8.06584ZM74.5022 10.0742C74.5022 10.8778 74.2402 11.5416 73.7177 12.0862L74.1969 12.546C74.8443 11.8712 75.1663 11.0399 75.1663 10.0742H74.5022Z" fill="#FEFBF9"/>
<path fill-rule="evenodd" clip-rule="evenodd" d="M75.9094 13.0934V7.05444H76.8403L79.7325 11.7508H79.7654L79.7325 10.5894V7.05444H80.4972V13.0934H79.6987L76.6702 8.1645H76.6365L76.6702 9.3302V13.0934H75.9094Z" fill="#FEFBF9"/>
<path fill-rule="evenodd" clip-rule="evenodd" d="M75.9094 13.0934V7.05444H76.8403L79.7325 11.7508H79.7654L79.7325 10.5894V7.05444H80.4972V13.0934H79.6987L76.6702 8.1645H76.6365L76.6702 9.3302V13.0934H75.9094Z" stroke="#FEFBF9" stroke-width="0.664125"/>
<path fill-rule="evenodd" clip-rule="evenodd" d="M107.024 30.22H108.88V17.628H107.024V30.22ZM123.706 22.1634L121.579 27.6225H121.516L119.316 22.1634H117.321L120.625 29.7922L118.74 34.0357H120.674L125.765 22.1634H123.706ZM113.202 28.7882C112.596 28.7882 111.753 28.4834 111.753 27.7217C111.753 26.7467 112.805 26.3734 113.715 26.3734C114.53 26.3734 114.912 26.5552 115.407 26.7966C115.262 27.9621 114.273 28.7882 113.202 28.7882ZM113.425 21.8875C112.088 21.8875 110.697 22.4872 110.126 23.8157L111.768 24.5149C112.121 23.8157 112.771 23.5895 113.458 23.5895C114.419 23.5895 115.392 24.1742 115.407 25.2085V25.3407C115.072 25.1443 114.355 24.8532 113.473 24.8532C111.704 24.8532 109.902 25.8414 109.902 27.6862C109.902 29.3741 111.351 30.4603 112.979 30.4603C114.224 30.4603 114.912 29.8894 115.344 29.2261H115.407V30.1991H117.194V25.3697C117.194 23.1367 115.552 21.8875 113.425 21.8875ZM101.985 23.6976H99.3499V19.3795H101.985C103.367 19.3795 104.155 20.5443 104.155 21.5383C104.155 22.5121 103.367 23.6976 101.985 23.6976ZM101.937 17.628H97.4986V30.22H99.3499V25.4489H101.937C103.992 25.4489 106.008 23.939 106.008 21.5383C106.008 19.1383 103.987 17.628 101.937 17.628ZM77.7448 28.7931C76.4661 28.7931 75.3959 27.7068 75.3959 26.2108C75.3959 24.7004 76.4661 23.5992 77.7448 23.5992C79.0057 23.5992 79.9993 24.7004 79.9993 26.2108C79.9993 27.7068 79.0057 28.7931 77.7448 28.7931ZM79.8678 22.8666H79.805C79.3884 22.365 78.5939 21.9122 77.5865 21.9122C75.4733 21.9122 73.5409 23.796 73.5409 26.2108C73.5409 28.6116 75.4733 30.4801 77.5865 30.4801C78.5939 30.4801 79.3884 30.0236 79.805 29.5071H79.8678V30.1217C79.8678 31.7599 79.0057 32.6397 77.6153 32.6397C76.4814 32.6397 75.7776 31.8087 75.4878 31.1099L73.8743 31.7935C74.3395 32.9297 75.5707 34.3265 77.6153 34.3265C79.7905 34.3265 81.6265 33.028 81.6265 29.8656V22.1726H79.8678V22.8666ZM82.9063 30.22H84.7624V17.628H82.9063V30.22ZM87.4941 26.0637C87.4458 24.4113 88.7589 23.5657 89.6984 23.5657C90.4349 23.5657 91.0606 23.939 91.2683 24.4741L87.4941 26.0637ZM93.25 24.6367C92.901 23.679 91.8261 21.9122 89.6353 21.9122C87.4642 21.9122 85.6575 23.648 85.6575 26.1967C85.6575 28.5967 87.4458 30.4801 89.8433 30.4801C91.7826 30.4801 92.901 29.2809 93.3611 28.5817L91.923 27.6088C91.4422 28.3205 90.7886 28.7931 89.8433 28.7931C88.9046 28.7931 88.2309 28.3563 87.7998 27.4943L93.4443 25.1245L93.2492 24.6367H93.25ZM48.2923 23.225V25.046H52.5749C52.4493 26.0637 52.1145 26.8113 51.6014 27.3326C50.976 27.9621 50.0024 28.6612 48.2923 28.6612C45.6561 28.6612 43.5923 26.5016 43.5923 23.8258C43.5923 21.1497 45.6561 18.9904 48.2923 18.9904C49.7173 18.9904 50.7546 19.5562 51.5193 20.2888L52.7838 19.0061C51.7125 17.9686 50.2886 17.1711 48.2923 17.1711C44.6778 17.1711 41.6404 20.1569 41.6404 23.8258C41.6404 27.4943 44.6778 30.4801 48.2923 30.4801C50.245 30.4801 51.7125 29.8309 52.867 28.6116C54.0482 27.412 54.4165 25.7241 54.4165 24.3617C54.4165 23.939 54.3816 23.5496 54.3199 23.225H48.2923ZM59.2868 28.7931C58.007 28.7931 56.9028 27.7217 56.9028 26.1967C56.9028 24.6517 58.007 23.5992 59.2868 23.5992C60.5658 23.5992 61.6656 24.6517 61.6656 26.1967C61.6656 27.7217 60.5658 28.7931 59.2868 28.7931ZM59.2868 21.9122C56.9513 21.9122 55.0517 23.7125 55.0517 26.1967C55.0517 28.6612 56.9513 30.4801 59.2868 30.4801C61.6203 30.4801 63.5208 28.6612 63.5208 26.1967C63.5208 23.7125 61.6203 21.9122 59.2868 21.9122ZM68.5254 28.7931C67.2467 28.7931 66.1464 27.7217 66.1464 26.1967C66.1464 24.6517 67.2467 23.5992 68.5254 23.5992C69.8044 23.5992 70.9095 24.6517 70.9095 26.1967C70.9095 27.7217 69.8044 28.7931 68.5254 28.7931ZM68.5254 21.9122C66.1947 21.9122 64.2914 23.7125 64.2914 26.1967C64.2914 28.6612 66.1947 30.4801 68.5254 30.4801C70.8609 30.4801 72.7653 28.6612 72.7653 26.1967C72.7653 23.7125 70.8609 21.9122 68.5254 21.9122Z" fill="#FEFBF9"/>
<path fill-rule="evenodd" clip-rule="evenodd" d="M31.7302 17.2668C33.7452 18.3982 33.7452 21.2988 31.7303 22.4302L14.0283 32.3703C12.0545 33.4786 9.61768 32.0522 9.61768 29.7886L9.61768 9.90867C9.61768 7.6451 12.0545 6.21868 14.0282 7.32694L31.7302 17.2668Z" fill="url(#paint0_linear_1_232)"/>
<mask id="mask1_1_232" style="mask-type:alpha" maskUnits="userSpaceOnUse" x="9" y="6" width="25" height="27">
<path fill-rule="evenodd" clip-rule="evenodd" d="M31.7302 17.2668C33.7452 18.3982 33.7452 21.2988 31.7303 22.4302L14.0283 32.3703C12.0545 33.4786 9.61768 32.0522 9.61768 29.7886L9.61768 9.90867C9.61768 7.6451 12.0545 6.21868 14.0282 7.32694L31.7302 17.2668Z" fill="white"/>
</mask>
<g mask="url(#mask1_1_232)">
<path fill-rule="evenodd" clip-rule="evenodd" d="M9.85137 5.74048L23.4197 19.6215L9.67612 34.0512L9.85137 5.74048Z" fill="url(#paint1_linear_1_232)"/>
<path fill-rule="evenodd" clip-rule="evenodd" d="M7.06122 2.88306L23.4181 19.6258L28.2812 14.8505L7.06122 2.88306Z" fill="url(#paint2_linear_1_232)"/>
<path fill-rule="evenodd" clip-rule="evenodd" d="M23.4204 19.6226L30.8653 27.3467L8.6243 35.0708L23.4204 19.6226Z" fill="url(#paint3_linear_1_232)"/>
</g>
</g>
<defs>
<linearGradient id="paint0_linear_1_232" x1="34.7347" y1="13.8893" x2="25.5504" y2="13.8893" gradientUnits="userSpaceOnUse">
<stop stop-color="#FBDA09"/>
<stop offset="1" stop-color="#FFBC00"/>
</linearGradient>
<linearGradient id="paint1_linear_1_232" x1="11.0087" y1="32.1059" x2="21.0936" y2="30.7361" gradientUnits="userSpaceOnUse">
<stop stop-color="#01E2FF"/>
<stop offset="1" stop-color="#01C4FF"/>
</linearGradient>
<linearGradient id="paint2_linear_1_232" x1="4.62545" y1="11.5678" x2="14.9725" y2="24.6777" gradientUnits="userSpaceOnUse">
<stop stop-color="#28D781"/>
<stop offset="1" stop-color="#02F076"/>
</linearGradient>
<linearGradient id="paint3_linear_1_232" x1="16.9894" y1="17.3424" x2="8.08938" y2="32.0215" gradientUnits="userSpaceOnUse">
<stop stop-color="#F2414E"/>
<stop offset="1" stop-color="#E02554"/>
</linearGradient>
</defs>
</svg>
